<?xml version="1.0" encoding="UTF-8" standalone="no"?>
<!DOCTYPE svg  PUBLIC '-//W3C//DTD SVG 1.1//EN'  'http://www.w3.org/Graphics/SVG/1.1/DTD/svg11.dtd'>
<svg xmlns="http://www.w3.org/2000/svg">
<defs>
<font id="SFUIDisplay-Regular" horiz-adv-x="1239">
<font-face underline-position="-250" font-weight="400" descent="-410" panose-1="0 0 5 0 0 0 0 0 0 0" units-per-em="2048" unicode-range="U+0020-25CA" bbox="-545 -469 2132 1905" x-height="1078" underline-thickness="120" font-family="SFUIDisplay" ascent="1638" cap-height="1443"/>
<missing-glyph horiz-adv-x="2048"/>
<glyph glyph-name=".notdef" horiz-adv-x="2048"/>
<glyph glyph-name=".null" horiz-adv-x="0"/>
<glyph glyph-name="nonmarkingreturn" horiz-adv-x="0"/>
<glyph glyph-name="space" horiz-adv-x="490" unicode=" "/>
<glyph glyph-name="exclam" horiz-adv-x="546" unicode="!" d="M273 -10q-48 0 -81 33t-33 81q0 49 33 81.5t81 32.5q49 0 81.5 -32.5t32.5 -81.5q0 -48 -32.5 -81t-81.5 -33zM183 1443h180l-12 -964h-156z"/>
<glyph glyph-name="quotedbl" horiz-adv-x="807" unicode='&quot;' d="M672 934h-160v509h160v-509zM295 934h-160v509h160v-509z"/>
<glyph glyph-name="numbersign" horiz-adv-x="1206" unicode="#" d="M494 903l-71 -349h310l71 349h-310zM1179 901h-233l-71 -344h219l-28 -144h-220l-84 -413h-143l84 413h-308l-84 -413h-142l83 413h-216l28 144h219l69 344h-205l29 143h205l83 399h142l-80 -399h306l83 399h143l-82 -399h231z"/>
<glyph glyph-name="dollar" d="M312 1077q0 -180 242 -231v460q-105 -6 -173.5 -70.5t-68.5 -158.5zM961 394q0 99 -66 160t-207 91v-496q130 7 201.5 71t71.5 174zM688 -137h-134v134q-203 15 -325.5 123t-123.5 275h171q8 -100 81 -164t197 -79v520l-80 22q-161 42 -247.5 138t-86.5 235 q0 164 111 269t303 124v140h134v-139q187 -16 301.5 -123t119.5 -269h-170q-3 93 -71.5 158.5t-179.5 78.5v-489l85 -21q184 -49 272.5 -143t88.5 -245q0 -177 -117.5 -285t-328.5 -125v-135z" unicode="$"/>
<glyph glyph-name="percent" horiz-adv-x="1508" unicode="%" d="M353 864q66 0 104 64t38 174q0 111 -37.5 173.5t-104.5 62.5q-66 0 -104.5 -63.5t-38.5 -172.5q0 -110 38.5 -174t104.5 -64zM655 1102q0 -164 -82.5 -262t-219.5 -98t-220 98.5t-83 261.5t83 261t220 98t219.5 -98t82.5 -261zM1156 106q66 0 104 64t38 174 q0 111 -37.5 173.5t-104.5 62.5q-66 0 -104.5 -63.5t-38.5 -172.5q0 -110 38.5 -174t104.5 -64zM1458 344q0 -164 -82.5 -262t-219.5 -98t-220 98.5t-83 261.5t83 261t220 98t219.5 -98t82.5 -261zM311 0h-174l1056 1443h172z"/>
<glyph glyph-name="ampersand" horiz-adv-x="1370" unicode="&amp;" d="M565 876q129 66 183 126t54 137q0 83 -54.5 135t-141.5 52q-85 0 -140 -53t-55 -136q0 -59 35 -118t119 -143zM468 679q-112 -68 -160 -134t-48 -149q0 -121 89 -195.5t233 -74.5q97 0 189.5 36.5t150.5 97.5l-406 445q-29 -14 -48 -26zM1161 0l-134 145 q-91 -81 -211.5 -125t-249.5 -44q-214 0 -349 114t-135 294q0 250 283 400q52 27 55 28q-97 103 -138 179.5t-41 155.5q0 137 104 228.5t260 91.5q159 0 262 -91t103 -231q0 -110 -72 -196.5t-237 -173.5l357 -385q69 129 69 384v43h166v-44q0 -317 -119 -504l253 -269h-226 z"/>
<glyph glyph-name="quotesingle" horiz-adv-x="430" unicode="&apos;" d="M295 934h-160v509h160v-509z"/>
<glyph glyph-name="parenleft" horiz-adv-x="636" unicode="(" d="M598 -277h-153q-38 47 -71.5 100.5t-71.5 135.5t-64.5 172.5t-44.5 212.5t-18 255t18 250.5t43 198.5t66.5 161t73.5 126.5t79 106.5h146q-37 -44 -75.5 -112t-80 -171.5t-67.5 -250t-26 -307.5q0 -110 11 -210.5t33.5 -187.5t43 -151t55 -135t52 -103.5t51.5 -90.5z"/>
<glyph glyph-name="parenright" horiz-adv-x="636" unicode=")" d="M37 -277q34 58 51.5 90.5t52 103.5t55 135t43 151t33.5 187.5t11 210.5q0 161 -26 308t-67 250t-79 171.5t-76 111.5h146q47 -60 79 -106.5t73.5 -126.5t66.5 -161t43 -198.5t18 -250.5q0 -537 -271 -876h-153z"/>
<glyph glyph-name="asterisk" horiz-adv-x="988" unicode="*" d="M790 881l-245 160l16 -291h-134l16 292l-245 -161l-65 116l259 132l-259 131l65 118l245 -163l-16 294h134l-16 -294l245 163l65 -118l-258 -131l258 -132z"/>
<glyph glyph-name="plus" horiz-adv-x="1238" unicode="+" d="M700 488v-458h-162v458h-427v162h427v447h162v-447h427v-162h-427z"/>
<glyph glyph-name="comma" horiz-adv-x="520" unicode="," d="M231 -257h-135l100 459h185z"/>
<glyph glyph-name="period" horiz-adv-x="520" unicode="." d="M260 -10q-48 0 -81 33t-33 81q0 49 33 81.5t81 32.5q49 0 81.5 -32.5t32.5 -81.5q0 -48 -32.5 -81t-81.5 -33z"/>
<glyph glyph-name="slash" horiz-adv-x="590" unicode="/" d="M146 -329h-146l441 1773h149z"/>
<glyph glyph-name="zero" horiz-adv-x="1242" unicode="0" d="M622 133q167 0 258 157.5t91 431.5q0 270 -92 428.5t-257 158.5t-258 -159t-93 -427q0 -274 92 -432t259 -158zM622 -24q-251 0 -391.5 200.5t-140.5 545.5q0 342 141.5 543.5t390.5 201.5t389.5 -200.5t140.5 -543.5q0 -345 -140 -546t-390 -201z"/>
<glyph glyph-name="one" horiz-adv-x="908" unicode="1" d="M485 0v1252h-4l-382 -275v190l384 276h176v-1443h-174z"/>
<glyph glyph-name="two" horiz-adv-x="1159" unicode="2" d="M108 1027q0 189 136 314.5t340 125.5q193 0 327 -115t134 -281q0 -120 -66 -231t-248 -299l-365 -377v-4h703v-160h-952v124l508 535q145 153 192.5 232t47.5 169q0 104 -83.5 177t-202.5 73q-127 0 -212 -81t-85 -202v-1h-174v1z"/>
<glyph glyph-name="three" horiz-adv-x="1212" unicode="3" d="M411 666v152h173q124 0 203 71.5t79 181.5t-73 175t-207 65q-124 0 -202 -66t-90 -180h-173q15 184 142.5 293t330.5 109q195 0 324 -105t129 -267q0 -135 -80 -227t-216 -116v-4q164 -10 261 -104.5t97 -246.5q0 -121 -68 -218t-184 -150t-257 -53q-224 0 -361 112 t-147 294h173q12 -113 101 -181.5t232 -68.5t235.5 73t92.5 186q0 127 -89.5 201t-244.5 74h-181z"/>
<glyph glyph-name="four" d="M256 462v-4h547v835h-3q-379 -541 -544 -831zM803 0v300h-725v163q93 173 236.5 395t396.5 585h266v-985h204v-158h-204v-300h-174z" unicode="4"/>
<glyph glyph-name="five" horiz-adv-x="1198" unicode="5" d="M613 -24q-207 0 -345.5 117t-149.5 301h177q12 -115 101 -187.5t219 -72.5q147 0 239.5 92t92.5 238t-92.5 239.5t-236.5 93.5q-101 0 -183 -43t-126 -119h-169l79 808h826v-160h-678l-44 -470h4q49 65 134.5 102t188.5 37q208 0 342.5 -136.5t134.5 -346.5 q0 -217 -144 -355t-370 -138z"/>
<glyph glyph-name="six" horiz-adv-x="1226" unicode="6" d="M637 135q138 0 234 95t96 232q0 142 -92 233.5t-235 91.5t-237.5 -91t-94.5 -229q0 -139 95.5 -235.5t233.5 -96.5zM639 -25q-162 0 -286 84.5t-191 240.5q-71 164 -71 397q0 365 147.5 568t412.5 203q184 0 314 -102t165 -272h-183q-29 98 -110 156.5t-188 58.5 q-181 0 -280 -155t-104 -443h3q49 106 159 170t244 64q206 0 342.5 -136t136.5 -341q0 -214 -144.5 -353.5t-366.5 -139.5z"/>
<glyph glyph-name="seven" horiz-adv-x="1120" unicode="7" d="M200 0l653 1279v4h-777v160h955v-167l-642 -1276h-189z"/>
<glyph glyph-name="eight" horiz-adv-x="1227" unicode="8" d="M613 832q126 0 206.5 67t80.5 172q0 106 -80 173.5t-207 67.5t-207 -67.5t-80 -173.5q0 -105 80 -172t207 -67zM613 133q149 0 244.5 76t95.5 194q0 119 -95.5 195t-244.5 76t-244.5 -76.5t-95.5 -194.5t96 -194t244 -76zM613 -24q-229 0 -376 116.5t-147 297.5 q0 135 85 237t225 134v4q-117 36 -185 122.5t-68 200.5q0 163 132.5 271t333.5 108q202 0 333.5 -107.5t131.5 -272.5q0 -113 -67 -199t-185 -123v-4q140 -33 225.5 -135t85.5 -236q0 -181 -147 -297.5t-377 -116.5z"/>
<glyph glyph-name="nine" horiz-adv-x="1226" unicode="9" d="M586 656q143 0 238 91t95 229q0 139 -95.5 234.5t-234.5 95.5t-235 -94.5t-96 -230.5q0 -141 93 -233t235 -92zM576 -24q-184 0 -315 102t-164 272h183q29 -98 110 -157.5t188 -59.5q180 0 279.5 156.5t103.5 444.5h-1h-2q-46 -107 -155.5 -171.5t-247.5 -64.5 q-206 0 -342.5 136t-136.5 341q0 214 144.5 353.5t366.5 139.5q163 0 287 -84.5t190 -239.5q71 -164 71 -398q0 -365 -147 -567.5t-412 -202.5z"/>
<glyph glyph-name="colon" horiz-adv-x="520" unicode=":" d="M260 726q-48 0 -81 33t-33 81q0 49 33 81.5t81 32.5q49 0 81.5 -32.5t32.5 -81.5q0 -48 -32.5 -81t-81.5 -33zM260 -10q-48 0 -81 33t-33 81q0 49 33 81.5t81 32.5q49 0 81.5 -32.5t32.5 -81.5q0 -48 -32.5 -81t-81.5 -33z"/>
<glyph glyph-name="semicolon" horiz-adv-x="520" unicode=";" d="M197 -257h-135l98 459h187zM260 726q-48 0 -81 33t-33 81q0 49 33 81.5t81 32.5q49 0 81.5 -32.5t32.5 -81.5q0 -48 -32.5 -81t-81.5 -33z"/>
<glyph glyph-name="less" d="M1059 980l-707 -400v-9l707 -378v-186l-879 491v142l879 526v-186z" unicode="&lt;"/>
<glyph glyph-name="equal" d="M1108 684h-977v154h977v-154zM1108 301h-977v154h977v-154z" unicode="="/>
<glyph glyph-name="greater" d="M180 981v186l879 -526v-142l-879 -491v186l707 378v9z" unicode="&gt;"/>
<glyph glyph-name="question" horiz-adv-x="1002" unicode="?" d="M457 -10q-48 0 -81 33t-33 81q0 49 33 81.5t81 32.5q49 0 81.5 -32.5t32.5 -81.5q0 -48 -32.5 -81t-81.5 -33zM56 1066q9 171 121.5 279.5t314.5 108.5q187 0 305.5 -103t118.5 -259q0 -219 -209 -345q-94 -56 -128.5 -106t-34.5 -130v-65h-175v92q-1 98 47.5 170 t152.5 134q88 54 124.5 108t36.5 133q0 94 -67.5 154.5t-177.5 60.5q-113 0 -181.5 -62t-76.5 -170h-171z"/>
<glyph glyph-name="at" horiz-adv-x="1791" unicode="@" d="M924 1435q173 0 321.5 -53.5t254.5 -149t166 -233t60 -300.5q0 -242 -101 -387.5t-275 -145.5q-87 0 -151 47t-73 121h-8q-32 -76 -98.5 -117.5t-155.5 -41.5q-156 0 -252 117t-96 308q0 182 97 297.5t251 115.5q80 0 147 -38.5t95 -102.5h8v122h151v-587q0 -51 28.5 -81 t84.5 -30q92 0 149.5 107.5t57.5 297.5q0 179 -85 317.5t-238.5 214.5t-350.5 76q-192 0 -345.5 -90.5t-240 -254t-86.5 -369.5q0 -166 53.5 -300t148 -221.5t223 -134t279.5 -46.5q101 0 194 13t141 35v-126q-139 -49 -337 -49q-184 0 -338 55.5t-266.5 159.5t-175.5 263 t-63 357q0 185 61 340.5t169.5 264t262 169t333.5 60.5zM889 875q-100 0 -156.5 -74t-56.5 -205q0 -130 56.5 -205t154.5 -75q103 0 164 76t61 204t-60.5 203.5t-162.5 75.5z"/>
<glyph glyph-name="A" horiz-adv-x="1292" unicode="A" d="M643 1224l-231 -658h468l-231 658h-6zM1078 0l-145 413h-574l-145 -413h-189l532 1443h178l532 -1443h-189z"/>
<glyph glyph-name="B" horiz-adv-x="1256" unicode="B" d="M320 159h356q163 0 247 65t84 190q0 252 -348 252h-339v-507zM320 1284v-463h288q160 0 244.5 62t84.5 179q0 107 -71 164.5t-202 57.5h-344zM703 0h-563v1443h565q185 0 299.5 -99t114.5 -261q0 -113 -72.5 -204.5t-176.5 -110.5v-8q147 -19 234.5 -115t87.5 -240 q0 -191 -129.5 -298t-359.5 -107z"/>
<glyph glyph-name="C" horiz-adv-x="1405" unicode="C" d="M734 -24q-299 0 -474.5 201.5t-175.5 544.5q0 340 177 542.5t473 202.5q236 0 400.5 -131.5t198.5 -347.5h-182q-35 142 -149 227.5t-268 85.5q-211 0 -338 -158t-127 -421q0 -266 126 -423t340 -157q159 0 268 73t148 205h182q-50 -214 -205 -329t-394 -115z"/>
<glyph glyph-name="D" horiz-adv-x="1399" unicode="D" d="M320 1281v-1119h303q245 0 377 144.5t132 413.5q0 271 -131.5 416t-377.5 145h-303zM140 1443h495q321 0 501 -190.5t180 -530.5q0 -341 -179.5 -531.5t-501.5 -190.5h-495v1443z"/>
<glyph glyph-name="E" horiz-adv-x="1131" unicode="E" d="M1034 162v-162h-894v1443h894v-162h-714v-463h677v-160h-677v-496h714z"/>
<glyph glyph-name="F" horiz-adv-x="1081" unicode="F" d="M320 0h-180v1443h876v-162h-696v-496h639v-160h-639v-625z"/>
<glyph glyph-name="G" horiz-adv-x="1447" unicode="G" d="M1357 597q0 -293 -161.5 -457t-450.5 -164q-302 0 -481.5 204.5t-179.5 548.5q0 338 179 538t482 200q234 0 398.5 -128.5t204.5 -343.5h-189q-45 146 -153.5 226t-260.5 80q-223 0 -349.5 -151.5t-126.5 -419.5q0 -272 128 -430t348 -158q192 0 312 113.5t120 294.5v26 h-407v158h587v-137z"/>
<glyph glyph-name="H" horiz-adv-x="1432" unicode="H" d="M1292 0h-180v657h-792v-657h-180v1443h180v-624h792v624h180v-1443z"/>
<glyph glyph-name="I" horiz-adv-x="460" unicode="I" d="M320 0h-180v1443h180v-1443z"/>
<glyph glyph-name="J" horiz-adv-x="1014" unicode="J" d="M42 339h179q3 -92 66.5 -149.5t161.5 -57.5q119 0 182 69.5t63 201.5v1040h180v-1041q0 -205 -112 -320.5t-312 -115.5q-180 0 -294 104.5t-114 268.5z"/>
<glyph glyph-name="K" horiz-adv-x="1260" unicode="K" d="M320 0h-180v1443h180v-704h10l637 704h227l-593 -639l646 -804h-230l-541 676l-156 -172v-504z"/>
<glyph glyph-name="L" horiz-adv-x="1074" unicode="L" d="M1016 162v-162h-876v1443h180v-1281h696z"/>
<glyph glyph-name="M" horiz-adv-x="1702" unicode="M" d="M1562 1443v-1443h-168v1112h-7l-460 -1102h-152l-460 1102h-7v-1112h-168v1443h209l498 -1204h8l498 1204h209z"/>
<glyph glyph-name="N" horiz-adv-x="1432" unicode="N" d="M318 0h-178v1443h175l790 -1133h9v1133h178v-1443h-175l-790 1129h-9v-1129z"/>
<glyph glyph-name="O" horiz-adv-x="1498" unicode="O" d="M749 1301q-221 0 -350.5 -156.5t-129.5 -423.5q0 -266 129.5 -422.5t350.5 -156.5t350.5 156.5t129.5 422.5q0 267 -129.5 423.5t-350.5 156.5zM749 1467q307 0 486 -201t179 -545t-179 -544.5t-486 -200.5t-486 200.5t-179 544.5t179 545t486 201z"/>
<glyph glyph-name="P" horiz-adv-x="1213" unicode="P" d="M320 1283v-608h318q154 0 239 80.5t85 224.5t-84.5 223.5t-239.5 79.5h-318zM140 1443h545q203 0 332.5 -129.5t129.5 -333.5q0 -205 -130 -335t-334 -130h-363v-515h-180v1443z"/>
<glyph glyph-name="Q" horiz-adv-x="1498" unicode="Q" d="M749 142q81 0 153 23l-180 248h202l123 -168q88 74 135 196t47 280q0 267 -129.5 423.5t-350.5 156.5t-350.5 -156.5t-129.5 -423.5q0 -266 129.5 -422.5t350.5 -156.5zM1343 -163h-202l-134 184q-115 -45 -258 -45q-307 0 -486 200.5t-179 544.5t179 545t486 201 t486 -201t179 -545q0 -208 -68 -367t-194 -254z"/>
<glyph glyph-name="R" horiz-adv-x="1237" unicode="R" d="M320 571v-571h-180v1443h551q209 0 334.5 -117.5t125.5 -312.5q0 -151 -77 -261t-213 -153l334 -599h-211l-309 571h-355zM320 1283v-553h355q139 0 214.5 72t75.5 205q0 130 -79 203t-219 73h-347z"/>
<glyph glyph-name="S" horiz-adv-x="1216" unicode="S" d="M71 397h181q13 -117 114.5 -188t256.5 -71q146 0 241.5 69.5t95.5 175.5q0 91 -66.5 150t-212.5 97l-185 48q-200 51 -292 142.5t-92 238.5q0 180 142.5 294t367.5 114q215 0 356 -115.5t147 -296.5h-180q-12 116 -100 183t-229 67q-140 0 -228.5 -66t-88.5 -172 q0 -82 64.5 -134.5t211.5 -90.5l151 -40q224 -56 322 -149t98 -248q0 -198 -145.5 -313.5t-394.5 -115.5q-230 0 -376 115t-159 306z"/>
<glyph glyph-name="T" horiz-adv-x="1210" unicode="T" d="M695 0h-180v1281h-465v162h1110v-162h-465v-1281z"/>
<glyph glyph-name="U" horiz-adv-x="1426" unicode="U" d="M320 1443v-925q0 -167 104.5 -271.5t288.5 -104.5t288.5 104.5t104.5 271.5v925h180v-937q0 -235 -154.5 -382.5t-418.5 -147.5t-418.5 147.5t-154.5 382.5v937h180z"/>
<glyph glyph-name="V" horiz-adv-x="1292" unicode="V" d="M735 0h-178l-532 1443h189l429 -1224h6l429 1224h189z"/>
<glyph glyph-name="W" horiz-adv-x="1892" unicode="W" d="M941 1145l-333 -1145h-170l-393 1443h188l289 -1178h8l325 1178h182l325 -1178h8l289 1178h188l-393 -1443h-170l-333 1145h-10z"/>
<glyph glyph-name="X" horiz-adv-x="1300" unicode="X" d="M45 0l491 723v7l-485 713h217l385 -580h7l390 580h205l-498 -722v-6l487 -715h-216l-383 575h-7l-389 -575h-204z"/>
<glyph glyph-name="Y" horiz-adv-x="1254" unicode="Y" d="M717 0h-180v621l-512 822h205l394 -648h6l394 648h205l-512 -822v-621z"/>
<glyph glyph-name="Z" horiz-adv-x="1263" unicode="Z" d="M98 0v128l823 1146v7h-795v162h1022v-128l-819 -1146v-7h836v-162h-1067z"/>
<glyph glyph-name="bracketleft" horiz-adv-x="664" unicode="[" d="M205 1444h452v-136h-284v-1413h296v-135h-464v1684z"/>
<glyph glyph-name="backslash" horiz-adv-x="590" unicode="\" d="M444 -329l-444 1773h149l441 -1773h-146z"/>
<glyph glyph-name="bracketright" horiz-adv-x="664" unicode="]" d="M459 1444v-1684h-464v135h297v1413h-284v136h451z"/>
<glyph glyph-name="asciicircum" horiz-adv-x="896" unicode="^" d="M440 1291l-218 -475h-167l298 627h190l298 -627h-167l-218 475h-16z"/>
<glyph glyph-name="underscore" horiz-adv-x="828" unicode="_" d="M882 -235h-936v128h936v-128z"/>
<glyph glyph-name="grave" horiz-adv-x="1005" unicode="`" d="M705 1250h-148l-261 300h198z"/>
<glyph glyph-name="a" horiz-adv-x="1062" unicode="a" d="M433 -10q-164 0 -264 87t-100 230q0 139 104 218.5t300 91.5l302 18v90q0 100 -64 154t-183 54q-94 0 -158.5 -45t-80.5 -121h-167q4 136 121 228.5t287 92.5q191 0 305 -94.5t114 -253.5v-740h-165v187h-4q-46 -90 -140 -143.5t-207 -53.5zM470 141q132 0 218.5 76.5 t86.5 192.5v87l-282 -18q-246 -15 -246 -173q0 -75 60.5 -120t162.5 -45z"/>
<glyph glyph-name="b" horiz-adv-x="1173" unicode="b" d="M617 933q-141 0 -228.5 -109.5t-87.5 -284.5q0 -176 87.5 -285t228.5 -109q142 0 227.5 107t85.5 287q0 179 -85.5 286.5t-227.5 107.5zM648 -10q-118 0 -208 49.5t-143 142.5h-4v-182h-165v1506h174v-603h4q51 89 141 137t205 48q204 0 330 -151.5t126 -397.5 q0 -247 -126.5 -398t-333.5 -151z"/>
<glyph glyph-name="c" horiz-adv-x="1060" unicode="c" d="M1009 727h-171q-17 91 -90 148.5t-190 57.5q-142 0 -229 -108t-87 -286q0 -182 87.5 -288t230.5 -106q113 0 185.5 51.5t94.5 148.5h171q-22 -159 -145.5 -257t-306.5 -98q-224 0 -359 148.5t-135 400.5q0 248 135 398.5t357 150.5q191 0 313 -105.5t139 -255.5z"/>
<glyph glyph-name="d" horiz-adv-x="1173" unicode="d" d="M558 933q-142 0 -228.5 -108t-86.5 -286q0 -179 86.5 -286.5t228.5 -107.5q140 0 227 109t87 285t-87 285t-227 109zM527 -10q-204 0 -333 151.5t-129 397.5q0 245 128 397t330 152q115 0 204.5 -48t139.5 -137h4v603h174v-1506h-166v182h-3q-53 -93 -142.5 -142.5 t-206.5 -49.5z"/>
<glyph glyph-name="e" horiz-adv-x="1084" unicode="e" d="M834 308h172q-22 -139 -148 -228.5t-299 -89.5q-227 0 -360.5 147t-133.5 398t133 402t353 151q216 0 342 -142.5t126 -386.5v-68h-774v-10q0 -154 87 -246t231 -92q101 0 174.5 44.5t96.5 120.5zM548 935q-127 0 -210.5 -84t-92.5 -221h593q-3 137 -82.5 221t-207.5 84z "/>
<glyph glyph-name="f" horiz-adv-x="629" unicode="f" d="M175 0v934h-150v144h150v100q0 150 68.5 219t218.5 69q48 0 97 -9v-144q-37 8 -81 8q-68 0 -98 -33.5t-31 -109.5v-100h210v-144h-210v-934h-174z"/>
<glyph glyph-name="g" horiz-adv-x="1163" unicode="g" d="M557 -385q-183 0 -305 81.5t-141 215.5h181q19 -67 93.5 -106.5t181.5 -39.5q140 0 222 67.5t82 182.5v169h-4q-51 -88 -142 -136.5t-204 -48.5q-205 0 -330.5 149.5t-125.5 393.5q0 247 126 396t334 149q114 0 205.5 -48t145.5 -137h3v175h166v-1048q0 -193 -130.5 -304 t-357.5 -111zM554 155q142 0 229.5 107.5t87.5 280.5q0 174 -87.5 282t-229.5 108q-141 0 -226 -106.5t-85 -283.5q0 -176 85 -282t226 -106z"/>
<glyph glyph-name="h" horiz-adv-x="1141" unicode="h" d="M128 0v1506h174v-603h4q102 185 342 185q176 0 278 -109t102 -291v-688h-174v657q0 131 -66 203.5t-192 72.5q-136 0 -215 -85t-79 -228v-620h-174z"/>
<glyph glyph-name="i" horiz-adv-x="430" unicode="i" d="M215 1252q-45 0 -77.5 32.5t-32.5 77.5q0 46 32.5 78t77.5 32q46 0 78 -32t32 -78q0 -45 -32 -77.5t-78 -32.5zM128 0v1078h174v-1078h-174z"/>
<glyph glyph-name="j" horiz-adv-x="430" unicode="j" d="M215 1252q-45 0 -77.5 32.5t-32.5 77.5q0 46 32.5 78t77.5 32q46 0 78 -32t32 -78q0 -45 -32 -77.5t-78 -32.5zM302 1078v-1131q0 -164 -79.5 -240.5t-251.5 -76.5h-31v147h27q88 0 124.5 37.5t36.5 129.5v1134h174z"/>
<glyph glyph-name="k" horiz-adv-x="1026" unicode="k" d="M302 596l483 482h212l-471 -466l485 -612h-202l-405 505l-102 -96v-409h-174v1506h174v-910z"/>
<glyph glyph-name="l" horiz-adv-x="430" unicode="l" d="M128 0v1506h174v-1506h-174z"/>
<glyph glyph-name="m" horiz-adv-x="1701" unicode="m" d="M118 0v1078h164v-175h4q38 86 119.5 135.5t186.5 49.5q109 0 188 -53t114 -151h4q46 96 136 150t203 54q160 0 255.5 -96t95.5 -256v-736h-174v696q0 112 -59.5 174.5t-167.5 62.5t-177.5 -72t-69.5 -183v-678h-174v717q0 98 -61.5 157t-162.5 59q-108 0 -179 -75.5 t-71 -188.5v-669h-174z"/>
<glyph glyph-name="n" horiz-adv-x="1115" unicode="n" d="M118 0v1078h164v-175h4q103 185 342 185q177 0 275.5 -106t98.5 -291v-691h-174v661q0 272 -252 272q-132 0 -208 -83.5t-76 -223.5v-626h-174z"/>
<glyph glyph-name="o" horiz-adv-x="1124" unicode="o" d="M562 145q151 0 235.5 104.5t84.5 289.5q0 186 -84.5 290t-235.5 104t-235.5 -104.5t-84.5 -289.5t85 -289.5t235 -104.5zM562 -10q-227 0 -362 149t-135 400t135 400t362 149t362 -149t135 -400t-135 -400t-362 -149z"/>
<glyph glyph-name="p" horiz-adv-x="1163" unicode="p" d="M604 145q143 0 229.5 107.5t86.5 286.5q0 178 -86.5 286t-229.5 108q-139 0 -226 -109t-87 -285t86.5 -285t226.5 -109zM636 1088q207 0 334.5 -151.5t127.5 -397.5t-127 -397.5t-331 -151.5q-114 0 -203.5 48t-140.5 137h-4v-535h-174v1438h165v-175h4q47 84 142 134.5 t207 50.5z"/>
<glyph glyph-name="q" horiz-adv-x="1163" unicode="q" d="M554 145q141 0 229 109.5t88 284.5t-88 284.5t-229 109.5t-226 -107.5t-85 -286.5q0 -180 85 -287t226 -107zM525 1088q117 0 208 -48t143 -137h3v175h166v-1438h-174v535h-4q-51 -88 -141.5 -136.5t-204.5 -48.5q-204 0 -330 151.5t-126 397.5q0 247 126.5 398 t333.5 151z"/>
<glyph glyph-name="r" horiz-adv-x="649" unicode="r" d="M118 0v1078h164v-175h4q24 85 95 135t166 50q42 0 72 -6v-171q-28 10 -95 10q-105 0 -168.5 -70t-63.5 -184v-667h-174z"/>
<glyph glyph-name="s" horiz-adv-x="984" unicode="s" d="M100 777q0 136 111.5 223t287.5 87q164 0 275.5 -87.5t116.5 -220.5h-167q-8 76 -70 120t-161 44q-100 0 -161 -43t-61 -114q0 -108 182 -153l164 -41q163 -41 229.5 -105.5t66.5 -182.5q0 -138 -119.5 -226t-306.5 -88q-174 0 -289 86.5t-128 226.5h175 q13 -82 78.5 -125.5t175.5 -43.5t174.5 42.5t64.5 115.5q0 57 -38 90.5t-130 57.5l-189 49q-281 73 -281 288z"/>
<glyph glyph-name="t" horiz-adv-x="634" unicode="t" d="M175 1321h174v-243h210v-144h-210v-647q0 -74 32.5 -109t101.5 -35q45 0 75 5v-147q-38 -9 -112 -9q-146 0 -208.5 66.5t-62.5 221.5v654h-150v144h150v243z"/>
<glyph glyph-name="u" horiz-adv-x="1115" unicode="u" d="M997 1078v-1078h-164v178h-4q-102 -188 -343 -188q-176 0 -274.5 106t-98.5 291v691h174v-661q0 -272 252 -272q132 0 208 83.5t76 223.5v626h174z"/>
<glyph glyph-name="v" horiz-adv-x="1022" unicode="v" d="M997 1078l-398 -1078h-176l-398 1078h182l302 -890h4l303 890h181z"/>
<glyph glyph-name="w" horiz-adv-x="1512" unicode="w" d="M1482 1078l-302 -1078h-176l-246 838h-4l-246 -838h-176l-302 1078h172l219 -881h4l247 881h168l247 -881h4l219 881h172z"/>
<glyph glyph-name="x" horiz-adv-x="991" unicode="x" d="M496 413h-4l-263 -413h-194l369 539l-363 539h194l263 -407h4l260 407h194l-365 -532l360 -546h-194z"/>
<glyph glyph-name="y" horiz-adv-x="1026" unicode="y" d="M210 -391q-39 0 -76 7v147q30 -6 71 -6q75 0 120 40.5t78 137.5l21 64l-399 1079h185l302 -901h4l302 901h183l-422 -1144q-69 -187 -147.5 -256t-221.5 -69z"/>
<glyph glyph-name="z" horiz-adv-x="990" unicode="z" d="M95 0v126l601 805v3h-600v144h796v-129l-597 -802v-3h600v-144h-800z"/>
<glyph glyph-name="braceleft" horiz-adv-x="734" unicode="{" d="M311 601q179 -17 179 -236v-334q0 -118 55 -171t179 -53h45v-141h-60q-194 0 -288.5 87t-94.5 266v289q0 119 -39 165t-139 46v191q100 0 139 46.5t39 166.5v255q0 175 94 259.5t289 84.5h60v-141h-45q-125 0 -179.5 -52.5t-54.5 -172.5v-296q0 -216 -179 -234v-25z"/>
<glyph glyph-name="bar" horiz-adv-x="446" unicode="|" d="M296 -326h-146v1769h146v-1769z"/>
<glyph glyph-name="braceright" horiz-adv-x="734" unicode="}" d="M423 601v25q-179 18 -179 234v296q0 120 -54.5 172.5t-179.5 52.5h-45v141h60q195 0 289 -84.5t94 -259.5v-255q0 -120 39 -166.5t139 -46.5v-191q-100 0 -139 -46t-39 -165v-289q0 -179 -94.5 -266t-288.5 -87h-60v141h45q124 0 179 53t55 171v334q0 219 179 236z"/>
<glyph glyph-name="asciitilde" d="M575 636q-54 56 -90 78.5t-70 22.5q-130 0 -141 -179h-160q-1 160 81 252t224 92q122 0 247 -125q52 -55 88 -77.5t70 -22.5q131 0 142 179h159q1 -160 -80.5 -252t-223.5 -92q-122 0 -246 124z" unicode="~"/>
<glyph glyph-name="nonbreakingspace" horiz-adv-x="490" unicode=" "/>
<glyph glyph-name="exclamdown" horiz-adv-x="546" unicode="¡" d="M273 885q-48 0 -81 33t-33 81q0 49 33 81.5t81 32.5q49 0 81.5 -32.5t32.5 -81.5q0 -48 -32.5 -81t-81.5 -33zM183 -342l12 964h156l12 -964h-180z"/>
<glyph glyph-name="cent" d="M1125 538q-17 -148 -128.5 -250t-277.5 -119v-169h-172v171q-199 31 -316 181t-117 373q0 220 117.5 369t315.5 178v171h172v-169q166 -18 280.5 -124.5t125.5 -249.5h-174q-21 104 -105.5 164t-209.5 60q-152 0 -248 -111.5t-96 -287.5q0 -178 96.5 -292t247.5 -114 q274 0 315 219h174z" unicode="¢"/>
<glyph glyph-name="sterling" d="M374 154h786v-154h-1062v152q133 30 220.5 129.5t87.5 219.5q0 66 -24 152h-284v144h234q-61 171 -61 263q0 196 137.5 306.5t379.5 110.5q187 0 300 -53v-160q-38 22 -121.5 38t-169.5 16q-161 0 -251.5 -67.5t-90.5 -186.5q0 -97 60 -267h471v-144h-424q21 -84 21 -145 q0 -118 -59.5 -207t-149.5 -143v-4z" unicode="£"/>
<glyph glyph-name="currency" d="M1112 1043l-168 -169q67 -99 67 -218q0 -121 -68 -219l169 -169l-106 -106l-169 169q-97 -66 -216 -66t-219 67l-169 -170l-106 106l170 170q-67 100 -67 218t67 217l-170 170l106 106l169 -169q100 67 219 67q118 0 217 -67l168 169zM357 656q0 -109 77.5 -186.5 t186.5 -77.5t186 77.5t77 186.5t-77 186.5t-186 77.5t-186.5 -77.5t-77.5 -186.5z" unicode="¤"/>
<glyph glyph-name="yen" d="M987 269h-277v-269h-180v269h-277v136h277v166h-277v136h223l-458 736h205l394 -647h6l393 647h205l-457 -736h223v-136h-277v-166h277v-136z" unicode="¥"/>
<glyph glyph-name="brokenbar" horiz-adv-x="448" unicode="¦" d="M297 -326h-146v669h146v-669zM297 774h-146v669h146v-669z"/>
<glyph glyph-name="section" horiz-adv-x="988" unicode="§" d="M499 -257q-172 0 -285.5 83t-123.5 216h176q10 -69 77 -111t165 -42q102 0 165.5 44t63.5 114q0 56 -47 94t-151 66l-141 38q-164 44 -240.5 113.5t-76.5 174.5q0 95 58.5 164t164.5 98v16q-219 85 -219 273q0 140 111 226.5t290 86.5q167 0 274 -78t124 -211h-173 q-11 65 -73 104t-156 39q-101 0 -162.5 -43.5t-61.5 -113.5q0 -57 46 -95t149 -66l141 -38q162 -43 237.5 -111t75.5 -169q0 -103 -71 -182t-183 -101v-16q254 -57 254 -257q0 -139 -114.5 -227.5t-293.5 -88.5zM429 400l83 -18q92 0 155 55t63 136q0 63 -44 106t-126 61 l-83 18q-91 0 -155 -56t-64 -135q0 -62 44.5 -105.5t126.5 -61.5z"/>
<glyph glyph-name="dieresis" horiz-adv-x="1004" unicode="¨" d="M699 1261q-46 0 -79 33t-33 79t33 79t79 33q47 0 79.5 -32.5t32.5 -79.5q0 -46 -33 -79t-79 -33zM305 1261q-46 0 -79 33t-33 79t33 79t79 33q47 0 79.5 -32.5t32.5 -79.5q0 -46 -33 -79t-79 -33z"/>
<glyph glyph-name="copyright" horiz-adv-x="1706" unicode="©" d="M1231 768h-139q-17 68 -75.5 112t-146.5 44q-116 0 -184.5 -79.5t-68.5 -216.5q0 -139 69 -219.5t184 -80.5q86 0 144.5 39t77.5 112h139q-19 -123 -114.5 -199t-245.5 -76q-181 0 -288.5 114t-107.5 310q0 192 107.5 306t287.5 114q150 0 246 -79.5t115 -200.5zM853 -28 q181 0 330.5 85t235.5 235t86 334q0 185 -86 335t-235.5 234.5t-330.5 84.5t-330 -84.5t-235.5 -234.5t-86.5 -335q0 -184 86.5 -334t236 -235t329.5 -85zM853 -168q-220 0 -401.5 103.5t-286.5 286t-105 404.5q0 223 105 405.5t286.5 285.5t401.5 103q221 0 402.5 -103 t286 -285.5t104.5 -405.5q0 -222 -104.5 -404.5t-286 -286t-402.5 -103.5z"/>
<glyph glyph-name="ordfeminine" horiz-adv-x="729" unicode="ª" d="M286 712q-109 0 -176.5 59t-67.5 155q0 95 71 149.5t206 62.5l194 11v56q0 61 -39.5 94t-111.5 33q-58 0 -98 -28t-49 -75h-137q3 97 84.5 160t203.5 63q133 0 212.5 -64.5t79.5 -171.5v-497h-140v120h-3q-30 -59 -92.5 -93t-136.5 -34zM326 828q81 0 134 46t53 117v56 l-175 -11q-149 -11 -149 -107q0 -46 37.5 -73.5t99.5 -27.5z"/>
<glyph glyph-name="guillemotleft" horiz-adv-x="1303" unicode="«" d="M338 572v-14l351 -413h-204l-350 416v8l350 416h204zM816 572v-14l351 -413h-204l-350 416v8l350 416h204z"/>
<glyph glyph-name="logicalnot" d="M1093 654v-528h-148v380h-799v148h947z" unicode="¬"/>
<glyph glyph-name="registered" horiz-adv-x="1160" unicode="®" d="M494 1216v-130h107q35 0 55 18t20 50q0 62 -72 62h-110zM494 846h-95v450h221q69 0 113.5 -39t44.5 -98q0 -54 -28 -89.5t-78 -43.5l129 -180h-119l-109 167h-79v-167zM580 692q155 0 262.5 107.5t107.5 262.5t-107.5 262.5t-262.5 107.5t-262.5 -107.5t-107.5 -262.5 q0 -154 108 -262t262 -108zM580 592q-132 0 -242 62t-174 170.5t-64 237.5q0 197 139.5 333.5t340.5 136.5t340.5 -136t139.5 -334q0 -197 -139.5 -333.5t-340.5 -136.5z"/>
<glyph glyph-name="macron" horiz-adv-x="1000" unicode="¯" d="M817 1426v-106h-634v106h634z"/>
<glyph glyph-name="degree" horiz-adv-x="733" unicode="°" d="M366 953q66 0 112 46t46 110q0 65 -46 111t-112 46q-63 0 -110 -46t-47 -111q0 -63 47 -109.5t110 -46.5zM366 824q-119 0 -201.5 83t-82.5 202t82.5 202t201.5 83q118 0 201.5 -83t83.5 -202t-83.5 -202t-201.5 -83z"/>
<glyph glyph-name="plusminus" d="M693 662v-291h-147v291h-435v136h435v291h147v-291h435v-136h-435zM1128 112h-1017v148h1017v-148z" unicode="±"/>
<glyph glyph-name="two.sups" horiz-adv-x="617" unicode="²" d="M45 1601q0 100 72.5 162.5t188.5 62.5q112 0 182 -56t70 -145q0 -53 -28 -101t-99 -115l-165 -155v-3h301v-126h-513v108l264 247q47 46 65 75.5t18 59.5q0 39 -28.5 63.5t-73.5 24.5t-75 -29t-30 -73v-3h-149v3z"/>
<glyph glyph-name="three.sups" horiz-adv-x="643" unicode="³" d="M230 1419v113h84q46 0 73.5 24t27.5 64q0 39 -27.5 61.5t-75.5 22.5q-46 0 -75.5 -25.5t-31.5 -67.5h-147q2 98 73.5 156.5t187.5 58.5q112 0 180 -50.5t68 -133.5q0 -61 -38.5 -104.5t-103.5 -54.5v-4q78 -7 123 -51t45 -113q0 -93 -76.5 -149.5t-202.5 -56.5 q-118 0 -191 59t-78 158h154q3 -41 34.5 -65t82.5 -24q49 0 80.5 25t31.5 65q0 43 -30.5 67.5t-83.5 24.5h-84z"/>
<glyph glyph-name="acute" horiz-adv-x="1005" unicode="´" d="M447 1250h-148l211 300h198z"/>
<glyph glyph-name="paragraph" horiz-adv-x="1201" unicode="¶" d="M921 -220v1663h180v-1663h-180zM774 -220h-180v795h-20q-202 0 -338 121.5t-136 305.5q0 191 136.5 316t338.5 125h199v-1663z"/>
<glyph glyph-name="periodcentered" horiz-adv-x="520" unicode="·" d="M260 491q-48 0 -81 33t-33 81q0 49 33 81.5t81 32.5q49 0 81.5 -32.5t32.5 -81.5q0 -48 -32.5 -81t-81.5 -33z"/>
<glyph glyph-name="cedilla" horiz-adv-x="1005" unicode="¸" d="M359 -230v74l63 164l109 -8l-52 -142q209 0 209 -150q0 -76 -62 -126t-157 -51h-14q-75 0 -133 17v98q38 -15 122 -15q120 0 120 73q0 35 -35.5 50.5t-114.5 15.5h-55z"/>
<glyph glyph-name="one.sups" horiz-adv-x="497" unicode="¹" d="M251 1125v545h-3l-178 -122v142l176 120h158v-685h-153z"/>
<glyph glyph-name="ordmasculine" horiz-adv-x="768" unicode="º" d="M384 831q92 0 143.5 66t51.5 184t-51.5 184t-143.5 66q-91 0 -142.5 -66t-51.5 -184t51.5 -184t142.5 -66zM384 710q-158 0 -250.5 100t-92.5 271t93 271t250 100t250 -100t93 -271t-92.5 -271t-250.5 -100z"/>
<glyph glyph-name="guillemotright" horiz-adv-x="1302" unicode="»" d="M964 572l-351 413h204l350 -416v-8l-350 -416h-204l351 413v14zM486 572l-351 413h204l350 -416v-8l-350 -416h-204l351 413v14z"/>
<glyph glyph-name="onequarter" horiz-adv-x="1462" unicode="¼" d="M261 758v545h-3l-178 -122v142l176 120h158v-685h-153zM989 241v-3h204v335h-3q-139 -214 -201 -332zM1189 0v115h-339v137q78 151 267 433h226v-442h87v-128h-87v-115h-154zM265 0h-174l1056 1443h172z"/>
<glyph glyph-name="onehalf" horiz-adv-x="1462" unicode="½" d="M908 476q0 100 72.5 162.5t188.5 62.5q112 0 182 -56t70 -145q0 -53 -28 -101t-99 -115l-165 -155v-3h301v-126h-513v108l264 247q47 46 65 75.5t18 59.5q0 39 -28.5 63.5t-73.5 24.5t-75 -29t-30 -73v-3h-149v3zM261 758v545h-3l-178 -122v142l176 120h158v-685h-153z M265 0h-174l1056 1443h172z"/>
<glyph glyph-name="threequarters" horiz-adv-x="1572" unicode="¾" d="M230 1052v113h84q46 0 73.5 24t27.5 64q0 39 -27.5 61.5t-75.5 22.5q-46 0 -75.5 -25.5t-31.5 -67.5h-147q2 98 73.5 156.5t187.5 58.5q112 0 180 -50.5t68 -133.5q0 -61 -38.5 -104.5t-103.5 -54.5v-4q78 -7 123 -51t45 -113q0 -93 -76.5 -149.5t-202.5 -56.5 q-118 0 -191 59t-78 158h154q3 -41 34.5 -65t82.5 -24q49 0 80.5 25t31.5 65q0 43 -30.5 67.5t-83.5 24.5h-84zM1099 241v-3h204v335h-3q-139 -214 -201 -332zM1299 0v115h-339v137q78 151 267 433h226v-442h87v-128h-87v-115h-154zM375 0h-174l1056 1443h172z"/>
<glyph glyph-name="questiondown" horiz-adv-x="1002" unicode="¿" d="M532 885q-48 0 -81 33t-33 81q0 49 33 81.5t81 32.5q49 0 81.5 -32.5t32.5 -81.5q0 -48 -32.5 -81t-81.5 -33zM946 32q-8 -171 -121 -280t-314 -109q-188 0 -306.5 103t-118.5 261q0 216 209 343q94 56 128 106t34 130v65h175v-92v-6q0 -95 -47.5 -165.5t-151.5 -132.5 q-87 -54 -124 -107.5t-37 -131.5q0 -96 67.5 -156.5t178.5 -60.5q112 0 180.5 62.5t76.5 170.5h171z"/>
<glyph glyph-name="Agrave" horiz-adv-x="1292" unicode="À" d="M572 1550l-281 299h198l231 -299h-148zM643 1224l-231 -658h468l-231 658h-6zM1078 0l-145 413h-574l-145 -413h-189l532 1443h178l532 -1443h-189z"/>
<glyph glyph-name="Aacute" horiz-adv-x="1292" unicode="Á" d="M723 1550h-148l231 299h198zM643 1224l-231 -658h468l-231 658h-6zM1078 0l-145 413h-574l-145 -413h-189l532 1443h178l532 -1443h-189z"/>
<glyph glyph-name="Acircumflex" horiz-adv-x="1292" unicode="Â" d="M575 1849h142l292 -299h-168l-194 201h-2l-194 -201h-168zM643 1224l-231 -658h468l-231 658h-6zM1078 0l-145 413h-574l-145 -413h-189l532 1443h178l532 -1443h-189z"/>
<glyph glyph-name="Atilde" horiz-adv-x="1292" unicode="Ã" d="M774 1535q-36 0 -67.5 15.5t-54 38t-42.5 45t-42 38t-43 15.5q-33 0 -51 -35.5t-18 -101.5h-114q0 118 47 184t131 66q47 0 87.5 -24t64 -52t51 -52t51.5 -24q62 0 62 138h114q0 -115 -48 -183t-128 -68zM643 1224l-231 -658h468l-231 658h-6zM1078 0l-145 413h-574 l-145 -413h-189l532 1443h178l532 -1443h-189z"/>
<glyph glyph-name="Adieresis" horiz-adv-x="1292" unicode="Ä" d="M843 1585q-46 0 -79 33t-33 79t33 79t79 33q47 0 79.5 -32.5t32.5 -79.5q0 -46 -33 -79t-79 -33zM449 1585q-46 0 -79 33t-33 79t33 79t79 33q47 0 79.5 -32.5t32.5 -79.5q0 -46 -33 -79t-79 -33zM643 1224l-231 -658h468l-231 658h-6zM1078 0l-145 413h-574l-145 -413 h-189l532 1443h178l532 -1443h-189z"/>
<glyph glyph-name="Aring" horiz-adv-x="1292" unicode="Å" d="M646 1590q48 0 82 34t34 82t-34 82t-82 34t-82 -34t-34 -82t34 -82t82 -34zM646 1507q-82 0 -140.5 58.5t-58.5 140.5t58.5 140.5t140.5 58.5t140.5 -58.5t58.5 -140.5t-58.5 -140.5t-140.5 -58.5zM643 1224l-231 -658h468l-231 658h-6zM1078 0l-145 413h-574l-145 -413 h-189l532 1443h178l532 -1443h-189z"/>
<glyph glyph-name="AE" horiz-adv-x="1973" unicode="Æ" d="M962 0v459h-555l-217 -459h-185l687 1443h1144v-162h-694v-473h657v-160h-657v-486h694v-162h-874zM802 1292l-322 -680h482v680h-160z"/>
<glyph glyph-name="Ccedilla" horiz-adv-x="1405" unicode="Ç" d="M1333 988h-182q-35 142 -149 227.5t-268 85.5q-211 0 -338 -158t-127 -421q0 -266 126 -423t340 -157q159 0 268 73t148 205h182q-46 -200 -185 -314t-354 -128l-44 -120q209 0 209 -150q0 -76 -62 -126t-157 -51h-14q-75 0 -133 17v98q37 -15 122 -15q120 0 120 73 q0 35 -35.5 50.5t-114.5 15.5h-55v74l51 134q-276 18 -436.5 217.5t-160.5 526.5q0 340 177 542.5t473 202.5q236 0 400.5 -131.5t198.5 -347.5z"/>
<glyph glyph-name="Egrave" horiz-adv-x="1131" unicode="È" d="M513 1550l-281 299h198l231 -299h-148zM1034 162v-162h-894v1443h894v-162h-714v-463h677v-160h-677v-496h714z"/>
<glyph glyph-name="Eacute" horiz-adv-x="1131" unicode="É" d="M664 1550h-148l231 299h198zM1034 162v-162h-894v1443h894v-162h-714v-463h677v-160h-677v-496h714z"/>
<glyph glyph-name="Ecircumflex" horiz-adv-x="1131" unicode="Ê" d="M516 1849h142l292 -299h-168l-194 201h-2l-194 -201h-168zM1034 162v-162h-894v1443h894v-162h-714v-463h677v-160h-677v-496h714z"/>
<glyph glyph-name="Edieresis" horiz-adv-x="1131" unicode="Ë" d="M784 1585q-46 0 -79 33t-33 79t33 79t79 33t79 -32.5t33 -79.5q0 -46 -33 -79t-79 -33zM390 1585q-46 0 -79 33t-33 79t33 79t79 33t79 -32.5t33 -79.5q0 -46 -33 -79t-79 -33zM1034 162v-162h-894v1443h894v-162h-714v-463h677v-160h-677v-496h714z"/>
<glyph glyph-name="Igrave" horiz-adv-x="460" unicode="Ì" d="M156 1550l-281 299h198l231 -299h-148zM320 0h-180v1443h180v-1443z"/>
<glyph glyph-name="Iacute" horiz-adv-x="460" unicode="Í" d="M307 1550h-148l231 299h198zM320 0h-180v1443h180v-1443z"/>
<glyph glyph-name="Icircumflex" horiz-adv-x="460" unicode="Î" d="M159 1849h142l292 -299h-168l-194 201h-2l-194 -201h-168zM320 0h-180v1443h180v-1443z"/>
<glyph glyph-name="Idieresis" horiz-adv-x="460" unicode="Ï" d="M427 1585q-46 0 -79 33t-33 79t33 79t79 33q47 0 79.5 -32.5t32.5 -79.5q0 -46 -33 -79t-79 -33zM33 1585q-46 0 -79 33t-33 79t33 79t79 33q47 0 79.5 -32.5t32.5 -79.5q0 -46 -33 -79t-79 -33zM320 0h-180v1443h180v-1443z"/>
<glyph glyph-name="Eth" horiz-adv-x="1412" unicode="Ð" d="M153 1443h495q321 0 501 -190.5t180 -530.5q0 -341 -179.5 -531.5t-501.5 -190.5h-495v663h-129v163h129v617zM333 162h303q245 0 377 144.5t132 413.5q0 271 -131.5 416t-377.5 145h-303v-455h277v-163h-277v-501z"/>
<glyph glyph-name="Ntilde" horiz-adv-x="1432" unicode="Ñ" d="M844 1535q-36 0 -67.5 15.5t-54 38t-42.5 45t-42 38t-43 15.5q-33 0 -51 -35.5t-18 -101.5h-114q0 118 47 184t131 66q47 0 87.5 -24t64 -52t51 -52t51.5 -24q62 0 62 138h114q0 -115 -48 -183t-128 -68zM318 0h-178v1443h175l790 -1133h9v1133h178v-1443h-175l-790 1129 h-9v-1129z"/>
<glyph glyph-name="Ograve" horiz-adv-x="1498" unicode="Ò" d="M675 1550l-281 299h198l231 -299h-148zM749 1301q-221 0 -350.5 -156.5t-129.5 -423.5q0 -266 129.5 -422.5t350.5 -156.5t350.5 156.5t129.5 422.5q0 267 -129.5 423.5t-350.5 156.5zM749 1467q307 0 486 -201t179 -545t-179 -544.5t-486 -200.5t-486 200.5t-179 544.5 t179 545t486 201z"/>
<glyph glyph-name="Oacute" horiz-adv-x="1498" unicode="Ó" d="M826 1550h-148l231 299h198zM749 1301q-221 0 -350.5 -156.5t-129.5 -423.5q0 -266 129.5 -422.5t350.5 -156.5t350.5 156.5t129.5 422.5q0 267 -129.5 423.5t-350.5 156.5zM749 1467q307 0 486 -201t179 -545t-179 -544.5t-486 -200.5t-486 200.5t-179 544.5t179 545 t486 201z"/>
<glyph glyph-name="Ocircumflex" horiz-adv-x="1498" unicode="Ô" d="M678 1849h142l292 -299h-168l-194 201h-2l-194 -201h-168zM749 1301q-221 0 -350.5 -156.5t-129.5 -423.5q0 -266 129.5 -422.5t350.5 -156.5t350.5 156.5t129.5 422.5q0 267 -129.5 423.5t-350.5 156.5zM749 1467q307 0 486 -201t179 -545t-179 -544.5t-486 -200.5 t-486 200.5t-179 544.5t179 545t486 201z"/>
<glyph glyph-name="Otilde" horiz-adv-x="1498" unicode="Õ" d="M877 1535q-36 0 -67.5 15.5t-54 38t-42.5 45t-42 38t-43 15.5q-33 0 -51 -35.5t-18 -101.5h-114q0 118 47 184t131 66q47 0 87.5 -24t64 -52t51 -52t51.5 -24q62 0 62 138h114q0 -115 -48 -183t-128 -68zM749 1301q-221 0 -350.5 -156.5t-129.5 -423.5 q0 -266 129.5 -422.5t350.5 -156.5t350.5 156.5t129.5 422.5q0 267 -129.5 423.5t-350.5 156.5zM749 1467q307 0 486 -201t179 -545t-179 -544.5t-486 -200.5t-486 200.5t-179 544.5t179 545t486 201z"/>
<glyph glyph-name="Odieresis" horiz-adv-x="1498" unicode="Ö" d="M946 1585q-46 0 -79 33t-33 79t33 79t79 33t79 -32.5t33 -79.5q0 -46 -33 -79t-79 -33zM552 1585q-46 0 -79 33t-33 79t33 79t79 33t79 -32.5t33 -79.5q0 -46 -33 -79t-79 -33zM749 1301q-221 0 -350.5 -156.5t-129.5 -423.5q0 -266 129.5 -422.5t350.5 -156.5 t350.5 156.5t129.5 422.5q0 267 -129.5 423.5t-350.5 156.5zM749 1467q307 0 486 -201t179 -545t-179 -544.5t-486 -200.5t-486 200.5t-179 544.5t179 545t486 201z"/>
<glyph glyph-name="multiply" d="M620 475l-308 -307l-104 104l307 308l-307 308l104 104l308 -307l307 307l104 -104l-306 -308l306 -308l-104 -104z" unicode="×"/>
<glyph glyph-name="Oslash" horiz-adv-x="1498" unicode="Ø" d="M1382 1419l-132 -172q164 -198 164 -526q0 -344 -179 -544.5t-486 -200.5q-226 0 -387 113l-104 -136l-100 76l110 142q-184 203 -184 550q0 344 179 545t486 201q249 0 415 -134l120 155zM382 319l673 872q-122 110 -306 110q-221 0 -350.5 -156.5t-129.5 -423.5 q0 -249 113 -402zM1135 1096l-665 -866q116 -88 279 -88q221 0 350.5 156.5t129.5 422.5q0 227 -94 375z"/>
<glyph glyph-name="Ugrave" horiz-adv-x="1426" unicode="Ù" d="M639 1550l-281 299h198l231 -299h-148zM320 1443v-925q0 -167 104.5 -271.5t288.5 -104.5t288.5 104.5t104.5 271.5v925h180v-937q0 -235 -154.5 -382.5t-418.5 -147.5t-418.5 147.5t-154.5 382.5v937h180z"/>
<glyph glyph-name="Uacute" horiz-adv-x="1426" unicode="Ú" d="M790 1550h-148l231 299h198zM320 1443v-925q0 -167 104.5 -271.5t288.5 -104.5t288.5 104.5t104.5 271.5v925h180v-937q0 -235 -154.5 -382.5t-418.5 -147.5t-418.5 147.5t-154.5 382.5v937h180z"/>
<glyph glyph-name="Ucircumflex" horiz-adv-x="1426" unicode="Û" d="M642 1849h142l292 -299h-168l-194 201h-2l-194 -201h-168zM320 1443v-925q0 -167 104.5 -271.5t288.5 -104.5t288.5 104.5t104.5 271.5v925h180v-937q0 -235 -154.5 -382.5t-418.5 -147.5t-418.5 147.5t-154.5 382.5v937h180z"/>
<glyph glyph-name="Udieresis" horiz-adv-x="1426" unicode="Ü" d="M910 1585q-46 0 -79 33t-33 79t33 79t79 33t79 -32.5t33 -79.5q0 -46 -33 -79t-79 -33zM516 1585q-46 0 -79 33t-33 79t33 79t79 33t79 -32.5t33 -79.5q0 -46 -33 -79t-79 -33zM320 1443v-925q0 -167 104.5 -271.5t288.5 -104.5t288.5 104.5t104.5 271.5v925h180v-937 q0 -235 -154.5 -382.5t-418.5 -147.5t-418.5 147.5t-154.5 382.5v937h180z"/>
<glyph glyph-name="Yacute" horiz-adv-x="1254" unicode="Ý" d="M704 1550h-148l231 299h198zM717 0h-180v621l-512 822h205l394 -648h6l394 648h205l-512 -822v-621z"/>
<glyph glyph-name="Thorn" horiz-adv-x="1232" unicode="Þ" d="M340 1017v-512h322q130 0 209 66t79 191t-79 190t-209 65h-322zM160 1443h180v-266h373q83 0 159 -28t134.5 -80t93.5 -131.5t35 -175.5t-35 -176t-94.5 -132t-135.5 -80.5t-159 -28.5h-371v-345h-180v1443z"/>
<glyph glyph-name="germandbls" horiz-adv-x="1238" unicode="ß" d="M353 0h-171v1101q0 179 114.5 287t304.5 108q183 0 299 -105t116 -270q0 -127 -61.5 -220t-167.5 -126v-4q160 -22 248 -119.5t88 -250.5q0 -188 -124.5 -301.5t-330.5 -113.5q-83 0 -144 13v153q54 -14 132 -14q135 0 215.5 72t80.5 193q0 130 -90 202.5t-250 72.5h-61 v170h51q116 0 180.5 70t64.5 194q0 103 -67.5 167.5t-175.5 64.5q-118 0 -184.5 -69t-66.5 -191v-1084z"/>
<glyph glyph-name="agrave" horiz-adv-x="1062" unicode="à" d="M591 1250h-148l-261 300h198zM433 -10q-164 0 -264 87t-100 230q0 139 104 218.5t300 91.5l302 18v90q0 100 -64 154t-183 54q-94 0 -158.5 -45t-80.5 -121h-167q4 136 121 228.5t287 92.5q191 0 305 -94.5t114 -253.5v-740h-165v187h-4q-46 -90 -140 -143.5t-207 -53.5z M470 141q132 0 218.5 76.5t86.5 192.5v87l-282 -18q-246 -15 -246 -173q0 -75 60.5 -120t162.5 -45z"/>
<glyph glyph-name="aacute" horiz-adv-x="1062" unicode="á" d="M600 1250h-148l211 300h198zM433 -10q-164 0 -264 87t-100 230q0 139 104 218.5t300 91.5l302 18v90q0 100 -64 154t-183 54q-94 0 -158.5 -45t-80.5 -121h-167q4 136 121 228.5t287 92.5q191 0 305 -94.5t114 -253.5v-740h-165v187h-4q-46 -90 -140 -143.5t-207 -53.5z M470 141q132 0 218.5 76.5t86.5 192.5v87l-282 -18q-246 -15 -246 -173q0 -75 60.5 -120t162.5 -45z"/>
<glyph glyph-name="acircumflex" horiz-adv-x="1062" unicode="â" d="M588 1550l277 -300h-163l-173 197h-6l-173 -197h-163l277 300h124zM433 -10q-164 0 -264 87t-100 230q0 139 104 218.5t300 91.5l302 18v90q0 100 -64 154t-183 54q-94 0 -158.5 -45t-80.5 -121h-167q4 136 121 228.5t287 92.5q191 0 305 -94.5t114 -253.5v-740h-165v187 h-4q-46 -90 -140 -143.5t-207 -53.5zM470 141q132 0 218.5 76.5t86.5 192.5v87l-282 -18q-246 -15 -246 -173q0 -75 60.5 -120t162.5 -45z"/>
<glyph glyph-name="atilde" horiz-adv-x="1062" unicode="ã" d="M658 1258q-36 0 -67.5 15.5t-54 38t-42.5 45t-42 38t-43 15.5q-33 0 -51 -35.5t-18 -101.5h-114q0 118 47 184t131 66q38 0 71.5 -15.5t56.5 -38t43.5 -45t41.5 -38t41 -15.5q62 0 62 138h114q0 -115 -48 -183t-128 -68zM433 -10q-164 0 -264 87t-100 230 q0 139 104 218.5t300 91.5l302 18v90q0 100 -64 154t-183 54q-94 0 -158.5 -45t-80.5 -121h-167q4 136 121 228.5t287 92.5q191 0 305 -94.5t114 -253.5v-740h-165v187h-4q-46 -90 -140 -143.5t-207 -53.5zM470 141q132 0 218.5 76.5t86.5 192.5v87l-282 -18 q-246 -15 -246 -173q0 -75 60.5 -120t162.5 -45z"/>
<glyph glyph-name="adieresis" horiz-adv-x="1062" unicode="ä" d="M723 1261q-46 0 -79 33t-33 79t33 79t79 33q47 0 79.5 -32.5t32.5 -79.5q0 -46 -33 -79t-79 -33zM329 1261q-46 0 -79 33t-33 79t33 79t79 33q47 0 79.5 -32.5t32.5 -79.5q0 -46 -33 -79t-79 -33zM433 -10q-164 0 -264 87t-100 230q0 139 104 218.5t300 91.5l302 18v90 q0 100 -64 154t-183 54q-94 0 -158.5 -45t-80.5 -121h-167q4 136 121 228.5t287 92.5q191 0 305 -94.5t114 -253.5v-740h-165v187h-4q-46 -90 -140 -143.5t-207 -53.5zM470 141q132 0 218.5 76.5t86.5 192.5v87l-282 -18q-246 -15 -246 -173q0 -75 60.5 -120t162.5 -45z"/>
<glyph glyph-name="aring" horiz-adv-x="1062" unicode="å" d="M526 1267q48 0 82 34t34 82t-34 82t-82 34t-82 -34t-34 -82t34 -82t82 -34zM526 1184q-82 0 -140.5 58.5t-58.5 140.5t58.5 140.5t140.5 58.5t140.5 -58.5t58.5 -140.5t-58.5 -140.5t-140.5 -58.5zM433 -10q-164 0 -264 87t-100 230q0 139 104 218.5t300 91.5l302 18v90 q0 100 -64 154t-183 54q-94 0 -158.5 -45t-80.5 -121h-167q4 136 121 228.5t287 92.5q191 0 305 -94.5t114 -253.5v-740h-165v187h-4q-46 -90 -140 -143.5t-207 -53.5zM470 141q132 0 218.5 76.5t86.5 192.5v87l-282 -18q-246 -15 -246 -173q0 -75 60.5 -120t162.5 -45z"/>
<glyph glyph-name="ae" horiz-adv-x="1769" unicode="æ" d="M461 141q132 0 222.5 77.5t90.5 191.5v81l-285 -15q-117 -6 -179.5 -50t-62.5 -120t58 -120.5t156 -44.5zM1248 935q-127 0 -209 -83.5t-91 -221.5h575q-3 141 -77 223t-198 82zM1260 -10q-133 0 -233.5 58t-153.5 165h-10q-134 -223 -406 -223q-178 0 -283 85t-105 228 q0 140 104.5 220.5t297.5 90.5l303 15v77q0 100 -70.5 163.5t-182.5 63.5q-105 0 -168.5 -44.5t-70.5 -121.5h-171q9 141 120 231t284 90q135 0 234 -56t138 -157h9q55 104 148.5 158.5t217.5 54.5q204 0 323 -142.5t119 -386.5v-67h-756v-11q0 -155 85.5 -246.5 t229.5 -91.5q97 0 164.5 43.5t91.5 121.5h172q-23 -141 -143 -229.5t-288 -88.5z"/>
<glyph glyph-name="ccedilla" horiz-adv-x="1060" unicode="ç" d="M840 345h171q-20 -144 -124 -239t-262 -112l-50 -136q209 0 209 -150q0 -76 -62 -126t-157 -51h-14q-75 0 -133 17v98q38 -15 122 -15q120 0 120 73q0 35 -35.5 50.5t-114.5 15.5h-55v74l57 148q-204 16 -325.5 162t-121.5 385q0 248 135 398.5t357 150.5 q191 0 313 -105.5t139 -255.5h-171q-17 91 -90 148.5t-190 57.5q-142 0 -229 -108t-87 -286q0 -182 87.5 -288t230.5 -106q113 0 185.5 51.5t94.5 148.5z"/>
<glyph glyph-name="egrave" horiz-adv-x="1084" unicode="è" d="M616 1250h-148l-261 300h198zM834 308h172q-22 -139 -148 -228.5t-299 -89.5q-227 0 -360.5 147t-133.5 398t133 402t353 151q216 0 342 -142.5t126 -386.5v-68h-774v-10q0 -154 87 -246t231 -92q101 0 174.5 44.5t96.5 120.5zM548 935q-127 0 -210.5 -84t-92.5 -221h593 q-3 137 -82.5 221t-207.5 84z"/>
<glyph glyph-name="eacute" horiz-adv-x="1084" unicode="é" d="M625 1250h-148l211 300h198zM834 308h172q-22 -139 -148 -228.5t-299 -89.5q-227 0 -360.5 147t-133.5 398t133 402t353 151q216 0 342 -142.5t126 -386.5v-68h-774v-10q0 -154 87 -246t231 -92q101 0 174.5 44.5t96.5 120.5zM548 935q-127 0 -210.5 -84t-92.5 -221h593 q-3 137 -82.5 221t-207.5 84z"/>
<glyph glyph-name="ecircumflex" horiz-adv-x="1084" unicode="ê" d="M613 1550l277 -300h-163l-173 197h-6l-173 -197h-163l277 300h124zM834 308h172q-22 -139 -148 -228.5t-299 -89.5q-227 0 -360.5 147t-133.5 398t133 402t353 151q216 0 342 -142.5t126 -386.5v-68h-774v-10q0 -154 87 -246t231 -92q101 0 174.5 44.5t96.5 120.5z M548 935q-127 0 -210.5 -84t-92.5 -221h593q-3 137 -82.5 221t-207.5 84z"/>
<glyph glyph-name="edieresis" horiz-adv-x="1084" unicode="ë" d="M748 1261q-46 0 -79 33t-33 79t33 79t79 33t79 -32.5t33 -79.5q0 -46 -33 -79t-79 -33zM354 1261q-46 0 -79 33t-33 79t33 79t79 33t79 -32.5t33 -79.5q0 -46 -33 -79t-79 -33zM834 308h172q-22 -139 -148 -228.5t-299 -89.5q-227 0 -360.5 147t-133.5 398t133 402 t353 151q216 0 342 -142.5t126 -386.5v-68h-774v-10q0 -154 87 -246t231 -92q101 0 174.5 44.5t96.5 120.5zM548 935q-127 0 -210.5 -84t-92.5 -221h593q-3 137 -82.5 221t-207.5 84z"/>
<glyph glyph-name="igrave" horiz-adv-x="430" unicode="ì" d="M280 1250h-148l-261 300h198zM128 0v1078h174v-1078h-174z"/>
<glyph glyph-name="iacute" horiz-adv-x="430" unicode="í" d="M289 1250h-148l211 300h198zM128 0v1078h174v-1078h-174z"/>
<glyph glyph-name="icircumflex" horiz-adv-x="430" unicode="î" d="M277 1550l277 -300h-163l-173 197h-6l-173 -197h-163l277 300h124zM128 0v1078h174v-1078h-174z"/>
<glyph glyph-name="idieresis" horiz-adv-x="430" unicode="ï" d="M412 1261q-46 0 -79 33t-33 79t33 79t79 33t79 -32.5t33 -79.5q0 -46 -33 -79t-79 -33zM18 1261q-46 0 -79 33t-33 79t33 79t79 33t79 -32.5t33 -79.5q0 -46 -33 -79t-79 -33zM128 0v1078h174v-1078h-174z"/>
<glyph glyph-name="eth" horiz-adv-x="1140" unicode="ð" d="M577 902q-144 0 -229.5 -104t-85.5 -279t85.5 -279t229.5 -104q145 0 231 104t86 279q0 173 -87 278t-230 105zM577 -19q-229 0 -361 144t-132 394q0 245 128 391.5t343 146.5q92 0 179 -49t121 -120h15q-22 85 -73 182.5t-109 168.5l-278 -90l-35 112l231 75 q-62 73 -200 190h206q77 -65 145 -141l250 81l35 -112l-203 -64q221 -306 221 -719q0 -273 -130 -431.5t-353 -158.5z"/>
<glyph glyph-name="ntilde" horiz-adv-x="1115" unicode="ñ" d="M692 1258q-36 0 -67.5 15.5t-54 38t-42.5 45t-42 38t-43 15.5q-33 0 -51 -35.5t-18 -101.5h-114q0 118 47 184t131 66q38 0 71.5 -15.5t56.5 -38t43.5 -45t41.5 -38t41 -15.5q62 0 62 138h114q0 -115 -48 -183t-128 -68zM118 0v1078h164v-175h4q103 185 342 185 q177 0 275.5 -106t98.5 -291v-691h-174v661q0 272 -252 272q-132 0 -208 -83.5t-76 -223.5v-626h-174z"/>
<glyph glyph-name="ograve" horiz-adv-x="1124" unicode="ò" d="M627 1250h-148l-261 300h198zM562 145q151 0 235.5 104.5t84.5 289.5q0 186 -84.5 290t-235.5 104t-235.5 -104.5t-84.5 -289.5t85 -289.5t235 -104.5zM562 -10q-227 0 -362 149t-135 400t135 400t362 149t362 -149t135 -400t-135 -400t-362 -149z"/>
<glyph glyph-name="oacute" horiz-adv-x="1124" unicode="ó" d="M636 1250h-148l211 300h198zM562 145q151 0 235.5 104.5t84.5 289.5q0 186 -84.5 290t-235.5 104t-235.5 -104.5t-84.5 -289.5t85 -289.5t235 -104.5zM562 -10q-227 0 -362 149t-135 400t135 400t362 149t362 -149t135 -400t-135 -400t-362 -149z"/>
<glyph glyph-name="ocircumflex" horiz-adv-x="1124" unicode="ô" d="M624 1550l277 -300h-163l-173 197h-6l-173 -197h-163l277 300h124zM562 145q151 0 235.5 104.5t84.5 289.5q0 186 -84.5 290t-235.5 104t-235.5 -104.5t-84.5 -289.5t85 -289.5t235 -104.5zM562 -10q-227 0 -362 149t-135 400t135 400t362 149t362 -149t135 -400 t-135 -400t-362 -149z"/>
<glyph glyph-name="otilde" horiz-adv-x="1124" unicode="õ" d="M694 1258q-36 0 -67.5 15.5t-54 38t-42.5 45t-42 38t-43 15.5q-33 0 -51 -35.5t-18 -101.5h-114q0 118 47 184t131 66q38 0 71.5 -15.5t56.5 -38t43.5 -45t41.5 -38t41 -15.5q62 0 62 138h114q0 -115 -48 -183t-128 -68zM562 145q151 0 235.5 104.5t84.5 289.5 q0 186 -84.5 290t-235.5 104t-235.5 -104.5t-84.5 -289.5t85 -289.5t235 -104.5zM562 -10q-227 0 -362 149t-135 400t135 400t362 149t362 -149t135 -400t-135 -400t-362 -149z"/>
<glyph glyph-name="odieresis" horiz-adv-x="1124" unicode="ö" d="M759 1261q-46 0 -79 33t-33 79t33 79t79 33q47 0 79.5 -32.5t32.5 -79.5q0 -46 -33 -79t-79 -33zM365 1261q-46 0 -79 33t-33 79t33 79t79 33q47 0 79.5 -32.5t32.5 -79.5q0 -46 -33 -79t-79 -33zM562 145q151 0 235.5 104.5t84.5 289.5q0 186 -84.5 290t-235.5 104 t-235.5 -104.5t-84.5 -289.5t85 -289.5t235 -104.5zM562 -10q-227 0 -362 149t-135 400t135 400t362 149t362 -149t135 -400t-135 -400t-362 -149z"/>
<glyph glyph-name="divide" d="M1128 496h-1017v148h1017v-148zM620 88q-54 0 -89.5 35t-35.5 90q0 54 35.5 89.5t89.5 35.5q53 0 89 -35.5t36 -89.5t-35.5 -89.5t-89.5 -35.5zM620 802q-54 0 -89.5 35t-35.5 90q0 54 35.5 89.5t89.5 35.5q53 0 89 -35.5t36 -89.5t-35.5 -89.5t-89.5 -35.5z" unicode="÷"/>
<glyph glyph-name="oslash" horiz-adv-x="1124" unicode="ø" d="M988 1054l-72 -106q143 -151 143 -409q0 -251 -135 -400t-362 -149q-143 0 -253 62l-61 -89l-104 69l66 96q-145 150 -145 411q0 251 135 400t362 149q148 0 260 -66l66 96zM309 273l422 615q-71 45 -169 45q-151 0 -235.5 -104.5t-84.5 -289.5q0 -162 67 -266zM817 802 l-417 -616q68 -41 162 -41q151 0 235.5 104.5t84.5 289.5q0 161 -65 263z"/>
<glyph glyph-name="ugrave" horiz-adv-x="1115" unicode="ù" d="M620 1250h-148l-261 300h198zM997 1078v-1078h-164v178h-4q-102 -188 -343 -188q-176 0 -274.5 106t-98.5 291v691h174v-661q0 -272 252 -272q132 0 208 83.5t76 223.5v626h174z"/>
<glyph glyph-name="uacute" horiz-adv-x="1115" unicode="ú" d="M629 1250h-148l211 300h198zM997 1078v-1078h-164v178h-4q-102 -188 -343 -188q-176 0 -274.5 106t-98.5 291v691h174v-661q0 -272 252 -272q132 0 208 83.5t76 223.5v626h174z"/>
<glyph glyph-name="ucircumflex" horiz-adv-x="1115" unicode="û" d="M617 1550l277 -300h-163l-173 197h-6l-173 -197h-163l277 300h124zM997 1078v-1078h-164v178h-4q-102 -188 -343 -188q-176 0 -274.5 106t-98.5 291v691h174v-661q0 -272 252 -272q132 0 208 83.5t76 223.5v626h174z"/>
<glyph glyph-name="udieresis" horiz-adv-x="1115" unicode="ü" d="M752 1261q-46 0 -79 33t-33 79t33 79t79 33t79 -32.5t33 -79.5q0 -46 -33 -79t-79 -33zM358 1261q-46 0 -79 33t-33 79t33 79t79 33t79 -32.5t33 -79.5q0 -46 -33 -79t-79 -33zM997 1078v-1078h-164v178h-4q-102 -188 -343 -188q-176 0 -274.5 106t-98.5 291v691h174 v-661q0 -272 252 -272q132 0 208 83.5t76 223.5v626h174z"/>
<glyph glyph-name="yacute" horiz-adv-x="1026" unicode="ý" d="M588 1250h-148l211 300h198zM210 -391q-39 0 -76 7v147q30 -6 71 -6q75 0 120 40.5t78 137.5l21 64l-399 1079h185l302 -901h4l302 901h183l-422 -1144q-69 -187 -147.5 -256t-221.5 -69z"/>
<glyph glyph-name="thorn" horiz-adv-x="1171" unicode="þ" d="M612 136q148 0 232 107t84 296t-83.5 296t-231.5 107q-146 0 -232 -108.5t-86 -294.5q0 -185 85.5 -294t231.5 -109zM653 1097q206 0 329.5 -152t123.5 -406q0 -253 -124 -405.5t-329 -152.5q-116 0 -205.5 48t-132.5 133h-15v-522h-172v1866h164v-608h16 q52 93 143.5 146t201.5 53z"/>
<glyph glyph-name="OE" horiz-adv-x="2216" unicode="Œ" d="M1245 0v228q-75 -120 -203 -186t-286 -66q-310 0 -491 201t-181 544q0 344 181 545t491 201q161 0 287.5 -64.5t201.5 -183.5v224h874v-162h-694v-463h656v-160h-656v-496h694v-162h-874zM756 1301q-224 0 -355.5 -156.5t-131.5 -423.5q0 -266 131.5 -422.5t355.5 -156.5 q223 0 354.5 156.5t131.5 422.5t-131.5 423t-354.5 157z"/>
<glyph glyph-name="oe" horiz-adv-x="1901" unicode="œ" d="M242 539q0 -185 85 -289.5t235 -104.5q151 0 235.5 104.5t84.5 289.5q0 186 -84.5 290t-235.5 104t-235.5 -104.5t-84.5 -289.5zM1655 630q-3 137 -83 221t-207 84t-210.5 -84t-92.5 -221h593zM1376 -10q-131 0 -237.5 56t-166.5 157h-8q-71 -110 -168.5 -161.5 t-233.5 -51.5q-227 0 -362 149t-135 400t135 400t362 149q137 0 234 -52t168 -164h8q59 102 163.5 159t232.5 57q216 0 342 -142.5t126 -386.5v-68h-774v-10q0 -154 87 -246t231 -92q101 0 174.5 44.5t96.5 120.5h172q-22 -139 -148 -228.5t-299 -89.5z"/>
<glyph glyph-name="Scaron" horiz-adv-x="1216" unicode="Š" d="M551 1550l-292 299h168l194 -201h2l194 201h168l-292 -299h-142zM71 397h181q13 -117 114.5 -188t256.5 -71q146 0 241.5 69.5t95.5 175.5q0 91 -66.5 150t-212.5 97l-185 48q-200 51 -292 142.5t-92 238.5q0 180 142.5 294t367.5 114q215 0 356 -115.5t147 -296.5h-180 q-12 116 -100 183t-229 67q-140 0 -228.5 -66t-88.5 -172q0 -82 64.5 -134.5t211.5 -90.5l151 -40q224 -56 322 -149t98 -248q0 -198 -145.5 -313.5t-394.5 -115.5q-230 0 -376 115t-159 306z"/>
<glyph glyph-name="scaron" horiz-adv-x="984" unicode="š" d="M561 1250h-124l-277 300h163l173 -197h6l173 197h163zM100 777q0 136 111.5 223t287.5 87q164 0 275.5 -87.5t116.5 -220.5h-167q-8 76 -70 120t-161 44q-100 0 -161 -43t-61 -114q0 -108 182 -153l164 -41q163 -41 229.5 -105.5t66.5 -182.5q0 -138 -119.5 -226 t-306.5 -88q-174 0 -289 86.5t-128 226.5h175q13 -82 78.5 -125.5t175.5 -43.5t174.5 42.5t64.5 115.5q0 57 -38 90.5t-130 57.5l-189 49q-281 73 -281 288z"/>
<glyph glyph-name="Ydieresis" horiz-adv-x="1254" unicode="Ÿ" d="M824 1585q-46 0 -79 33t-33 79t33 79t79 33t79 -32.5t33 -79.5q0 -46 -33 -79t-79 -33zM430 1585q-46 0 -79 33t-33 79t33 79t79 33t79 -32.5t33 -79.5q0 -46 -33 -79t-79 -33zM717 0h-180v621l-512 822h205l394 -648h6l394 648h205l-512 -822v-621z"/>
<glyph glyph-name="circumflex" horiz-adv-x="1006" unicode="ˆ" d="M565 1550l277 -300h-163l-173 197h-6l-173 -197h-163l277 300h124z"/>
<glyph glyph-name="tilde" horiz-adv-x="1006" unicode="˜" d="M631 1258q-36 0 -67.5 15.5t-54 38t-42.5 45t-42 38t-43 15.5q-33 0 -51 -35.5t-18 -101.5h-114q0 118 47 184t131 66q38 0 71.5 -15.5t56.5 -38t43.5 -45t41.5 -38t41 -15.5q62 0 62 138h114q0 -115 -48 -183t-128 -68z"/>
<glyph glyph-name="Alphagreek" horiz-adv-x="1292" unicode="Α" d="M643 1224l-231 -658h468l-231 658h-6zM1078 0l-145 413h-574l-145 -413h-189l532 1443h178l532 -1443h-189z"/>
<glyph glyph-name="Betagreek" horiz-adv-x="1256" unicode="Β" d="M320 159h356q163 0 247 65t84 190q0 252 -348 252h-339v-507zM320 1284v-463h288q160 0 244.5 62t84.5 179q0 107 -71 164.5t-202 57.5h-344zM703 0h-563v1443h565q185 0 299.5 -99t114.5 -261q0 -113 -72.5 -204.5t-176.5 -110.5v-8q147 -19 234.5 -115t87.5 -240 q0 -191 -129.5 -298t-359.5 -107z"/>
<glyph glyph-name="Gammagreek" horiz-adv-x="1061" unicode="Γ" d="M320 0h-180v1443h856v-162h-676v-1281z"/>
<glyph glyph-name="Deltagreek" horiz-adv-x="1298" unicode="Δ" d="M256 169v-7h786v7l-390 1065h-6zM1243 0h-1188v127l505 1316h178l505 -1316v-127z"/>
<glyph glyph-name="Epsilongreek" horiz-adv-x="1131" unicode="Ε" d="M1034 162v-162h-894v1443h894v-162h-714v-463h677v-160h-677v-496h714z"/>
<glyph glyph-name="Zetagreek" horiz-adv-x="1263" unicode="Ζ" d="M98 0v128l823 1146v7h-795v162h1022v-128l-819 -1146v-7h836v-162h-1067z"/>
<glyph glyph-name="Etagreek" horiz-adv-x="1432" unicode="Η" d="M1292 0h-180v657h-792v-657h-180v1443h180v-624h792v624h180v-1443z"/>
<glyph glyph-name="Thetagreek" horiz-adv-x="1508" unicode="Θ" d="M754 1301q-225 0 -355 -156t-130 -424q0 -267 130 -423t355 -156q226 0 355.5 156t129.5 423q0 268 -129 424t-356 156zM754 1467q312 0 491 -200.5t179 -545.5t-179 -545t-491 -200q-311 0 -490.5 200.5t-179.5 544.5t179.5 545t490.5 201zM1057 638h-605v162h605v-162z "/>
<glyph glyph-name="Iotagreek" horiz-adv-x="460" unicode="Ι" d="M320 0h-180v1443h180v-1443z"/>
<glyph glyph-name="Kappagreek" horiz-adv-x="1260" unicode="Κ" d="M320 0h-180v1443h180v-704h10l637 704h227l-593 -639l646 -804h-230l-541 676l-156 -172v-504z"/>
<glyph glyph-name="Lambdagreek" horiz-adv-x="1252" unicode="Λ" d="M1038 0l-409 1214h-6l-409 -1214h-189l512 1443h178l512 -1443h-189z"/>
<glyph glyph-name="Mugreek" horiz-adv-x="1702" unicode="Μ" d="M1562 1443v-1443h-168v1112h-7l-460 -1102h-152l-460 1102h-7v-1112h-168v1443h209l498 -1204h8l498 1204h209z"/>
<glyph glyph-name="Nugreek" horiz-adv-x="1432" unicode="Ν" d="M318 0h-178v1443h175l790 -1133h9v1133h178v-1443h-175l-790 1129h-9v-1129z"/>
<glyph glyph-name="Xigreek" horiz-adv-x="1253" unicode="Ξ" d="M97 164h1059v-164h-1059v164zM1069 654h-885v162h885v-162zM97 1443h1059v-164h-1059v164z"/>
<glyph glyph-name="Omicrongreek" horiz-adv-x="1498" unicode="Ο" d="M749 1301q-221 0 -350.5 -156.5t-129.5 -423.5q0 -266 129.5 -422.5t350.5 -156.5t350.5 156.5t129.5 422.5q0 267 -129.5 423.5t-350.5 156.5zM749 1467q307 0 486 -201t179 -545t-179 -544.5t-486 -200.5t-486 200.5t-179 544.5t179 545t486 201z"/>
<glyph glyph-name="Pigreek" horiz-adv-x="1412" unicode="Π" d="M1272 0h-180v1281h-772v-1281h-180v1443h1132v-1443z"/>
<glyph glyph-name="Rhogreek" horiz-adv-x="1213" unicode="Ρ" d="M320 1283v-608h318q154 0 239 80.5t85 224.5t-84.5 223.5t-239.5 79.5h-318zM140 1443h545q203 0 332.5 -129.5t129.5 -333.5q0 -205 -130 -335t-334 -130h-363v-515h-180v1443z"/>
<glyph glyph-name="Sigmagreek" horiz-adv-x="1233" unicode="Σ" d="M316 169v-7h819v-162h-1037v128l419 597l-402 576v142h992v-162h-769v-7l372 -533v-7z"/>
<glyph glyph-name="Taugreek" horiz-adv-x="1210" unicode="Τ" d="M695 0h-180v1281h-465v162h1110v-162h-465v-1281z"/>
<glyph glyph-name="Upsilongreek" horiz-adv-x="1254" unicode="Υ" d="M717 0h-180v621l-512 822h205l394 -648h6l394 648h205l-512 -822v-621z"/>
<glyph glyph-name="Phigreek" horiz-adv-x="1628" unicode="Φ" d="M904 -58h-180v143q-298 13 -474 184.5t-176 448.5t176 448.5t474 184.5v146h180v-146q298 -13 474 -184.5t176 -448.5t-176 -448.5t-474 -184.5v-143zM258 718q0 -213 124 -338.5t342 -133.5v944q-218 -8 -342 -133.5t-124 -338.5zM1370 718q0 213 -124 338.5t-342 133.5 v-944q218 8 342 133.5t124 338.5z"/>
<glyph glyph-name="Chigreek" horiz-adv-x="1300" unicode="Χ" d="M45 0l491 723v7l-485 713h217l385 -580h7l390 580h205l-498 -722v-6l487 -715h-216l-383 575h-7l-389 -575h-204z"/>
<glyph glyph-name="Psigreek" horiz-adv-x="1578" unicode="Ψ" d="M879 0h-180v339q-261 1 -420 154.5t-159 404.5v545h180v-539q0 -188 103.5 -291t295.5 -108v938h180v-938q192 5 295.5 108t103.5 291v539h180v-545q0 -251 -159.5 -405t-419.5 -154v-339z"/>
<glyph glyph-name="alphagreek" horiz-adv-x="1229" unicode="α" d="M519 -10q-203 0 -328.5 152t-125.5 397t126 397t329 152q107 0 196.5 -49.5t139.5 -135.5h3v175h166v-795q0 -71 22 -102.5t72 -31.5q28 0 55 8l10 -149q-44 -10 -94 -10q-210 0 -239 177h-2h-2q-44 -82 -135.5 -133.5t-192.5 -51.5zM532 145q143 0 231 108.5t88 285.5 q0 174 -87.5 284t-226.5 110q-132 0 -213 -108.5t-81 -285.5q0 -182 78 -288t211 -106z"/>
<glyph glyph-name="betagreek" horiz-adv-x="1161" unicode="β" d="M118 1028q0 235 115 361.5t328 126.5q202 0 318.5 -99t116.5 -273q0 -109 -58.5 -191.5t-165.5 -124.5v-2q159 -37 241.5 -137t82.5 -253q0 -196 -125 -321t-324 -125q-123 0 -212.5 48t-138.5 137h-4v-535h-174v1388zM458 738v149h87q136 0 207 62.5t71 183.5 q0 104 -70.5 166t-186.5 62q-276 0 -276 -351v-472q0 -187 85.5 -290t248.5 -103q136 0 215 79t79 206q0 149 -96 228.5t-280 79.5h-84z"/>
<glyph glyph-name="gammagreek" horiz-adv-x="1095" unicode="γ" d="M1000 910q0 -123 -25 -236t-80.5 -229t-123 -223t-173.5 -250v-322h-172v328l-376 1100h184l296 -934h4q155 216 229.5 396.5t74.5 369.5q0 77 -10 168h163q9 -71 9 -168z"/>
<glyph glyph-name="deltagreek" horiz-adv-x="1114" unicode="δ" d="M554 141q144 0 231 96.5t87 266.5q0 178 -86.5 271.5t-227.5 93.5q-152 0 -234 -103t-82 -270q0 -161 85.5 -258t226.5 -97zM559 -10q-220 0 -357 140t-137 371q0 205 112.5 335t293.5 147v2q-238 106 -238 267q0 125 101 194.5t269 69.5q202 0 343 -73l-10 -153 q-185 75 -341 75q-93 0 -141.5 -29t-48.5 -83q0 -47 43.5 -84t178.5 -105q226 -114 324 -244t98 -310q0 -237 -135.5 -378.5t-354.5 -141.5z"/>
<glyph glyph-name="epsilongreek" horiz-adv-x="1051" unicode="ε" d="M508 -10q-202 0 -317.5 82.5t-115.5 220.5q0 90 51 153t144 90v4q-85 30 -130.5 91t-45.5 146q0 140 116.5 225.5t317.5 85.5q211 0 327.5 -93t131.5 -258h-174q-19 104 -84 150t-219 47q-125 0 -187 -44.5t-62 -117.5q0 -154 249 -154h154v-149h-154q-120 0 -188.5 -43 t-68.5 -118q0 -163 266 -163q269 0 308 191h174q-25 -159 -156.5 -252.5t-336.5 -93.5z"/>
<glyph glyph-name="zetagreek" horiz-adv-x="884" unicode="ζ" d="M826 -360l-146 30q51 95 51 178q0 67 -44.5 107.5t-180.5 83.5q-242 76 -341.5 194.5t-99.5 328.5q0 217 144.5 420.5t402.5 364.5v5h-460v154h721v-153q-316 -183 -473 -374.5t-157 -408.5q0 -154 70.5 -234.5t257.5 -141.5t257.5 -132.5t70.5 -186.5 q0 -61 -16.5 -114.5t-56.5 -120.5z"/>
<glyph glyph-name="etagreek" horiz-adv-x="1227" unicode="η" d="M1114 -360h-174v1004q0 148 -57.5 218.5t-196.5 70.5q-125 0 -198.5 -84t-73.5 -221v-628h-174v794q0 72 -24.5 103.5t-75.5 31.5q-33 0 -59 -8v149q55 10 102 10q169 0 212 -137q8 -31 9 -40h4q53 94 131.5 139.5t195.5 45.5q186 0 282.5 -105t96.5 -295v-1048z"/>
<glyph glyph-name="thetagreek" horiz-adv-x="1190" unicode="θ" d="M273 844h644q-22 517 -322 517t-322 -517zM595 145q158 0 237 132.5t86 412.5h-646q7 -280 86 -412.5t237 -132.5zM595 -10q-245 0 -372.5 198t-127.5 568t129 565t371 195t371 -197t129 -566q0 -368 -129.5 -565.5t-370.5 -197.5z"/>
<glyph glyph-name="iotagreek" horiz-adv-x="553" unicode="ι" d="M120 1078h174v-791q0 -74 32.5 -109t101.5 -35q45 0 75 5l10 -147q-38 -9 -122 -9q-146 0 -208.5 66.5t-62.5 221.5v798z"/>
<glyph glyph-name="kappagreek" horiz-adv-x="1119" unicode="κ" d="M128 0v1078h172v-578h2l342 400q90 106 150 143t142 37q50 0 95 -10v-149q-24 8 -76 8q-48 0 -88.5 -27.5t-113.5 -113.5l-115 -136l431 -652h-195l-342 531l-232 -253v-278h-172z"/>
<glyph glyph-name="lambdagreek" horiz-adv-x="1118" unicode="λ" d="M40 0l422 1018l-54 147q-47 128 -83.5 164t-113.5 36q-30 0 -62 -9v149q55 11 93 11q128 0 194.5 -63t130.5 -244l333 -949q23 -65 52 -88t81 -23q29 0 55 8l10 -149q-45 -10 -92 -10q-106 0 -162.5 46t-103.5 182l-202 585h-2l-318 -811h-178z"/>
<glyph glyph-name="mugreek" horiz-adv-x="1216" unicode="μ" d="M118 -360v1438h174v-656q0 -134 64 -204.5t185 -70.5q135 0 211 81.5t76 223.5v626h174v-796q0 -71 22 -102t71 -31q32 0 56 8l10 -149q-38 -10 -97 -10q-183 0 -223 155q-3 12 -7 36h-2q-50 -94 -126.5 -146.5t-169.5 -52.5q-80 0 -146.5 37.5t-95.5 99.5h-2v-487h-174z "/>
<glyph glyph-name="nugreek" horiz-adv-x="1075" unicode="ν" d="M419 0l-369 1078h184l296 -934h4q146 205 211.5 386.5t65.5 379.5q0 77 -10 168h170q9 -71 9 -168q0 -235 -82.5 -443t-278.5 -467h-200z"/>
<glyph glyph-name="xigreek" horiz-adv-x="924" unicode="ξ" d="M826 -360l-146 30q51 94 51 183q0 64 -48.5 105t-191.5 86q-237 74 -331.5 171t-94.5 233q0 128 79 219t226 123v2q-125 43 -183.5 111t-58.5 177q0 101 61 169.5t174 99.5v3h-231v154h741v-137l-103 -11q-247 -26 -362.5 -92t-115.5 -189q0 -105 89.5 -150.5 t283.5 -45.5h135v-154h-138q-420 0 -420 -257q0 -93 72 -154.5t257 -121.5q183 -59 255.5 -131t72.5 -188q0 -61 -16.5 -114.5t-56.5 -120.5z"/>
<glyph glyph-name="omicrongreek" horiz-adv-x="1114" unicode="ο" d="M557 145q149 0 231.5 103.5t82.5 290.5q0 184 -84 289t-230 105t-230 -105t-84 -289q0 -187 82.5 -290.5t231.5 -103.5zM557 -10q-222 0 -357 150.5t-135 398.5q0 252 133 400.5t359 148.5t359 -148.5t133 -400.5q0 -248 -135 -398.5t-357 -150.5z"/>
<glyph glyph-name="pigreek" horiz-adv-x="1335" unicode="π" d="M277 0v929h-212v149h1185v-149h-215v-654q0 -67 23 -96.5t72 -29.5q25 0 54 8l10 -149q-46 -10 -94 -10q-121 0 -176.5 61.5t-55.5 198.5v671h-424v-929h-167z"/>
<glyph glyph-name="rhogreek" horiz-adv-x="1153" unicode="ρ" d="M108 -360v893q0 253 131.5 404t352.5 151t358.5 -149.5t137.5 -394.5q0 -252 -126 -403t-338 -151q-111 0 -201 50t-137 135h-4v-535h-174zM585 145q152 0 238.5 106.5t86.5 289.5q0 185 -85.5 288.5t-232.5 103.5q-145 0 -228 -104t-83 -286q0 -179 86 -288.5 t218 -109.5z"/>
<glyph glyph-name="sigmafinalgreek" horiz-adv-x="1042" unicode="ς" d="M826 -360l-146 30q51 95 51 178q0 67 -44.5 107.5t-180.5 83.5q-242 76 -341.5 195.5t-99.5 334.5q0 233 129 376t346 143q197 0 311.5 -92.5t141.5 -267.5h-174q-21 100 -88.5 153t-179.5 53q-144 0 -226 -100.5t-82 -264.5q0 -153 70.5 -233.5t257.5 -141.5 t257.5 -132.5t70.5 -186.5q0 -61 -16.5 -114.5t-56.5 -120.5z"/>
<glyph glyph-name="sigmagreek" horiz-adv-x="1256" unicode="σ" d="M553 146q147 0 232.5 104t85.5 283q0 182 -80 286t-219 104q-151 0 -240 -106t-89 -285q0 -178 83.5 -282t226.5 -104zM554 -9q-219 0 -354 149.5t-135 392.5q0 250 145 397.5t390 147.5h591v-149h-325v-4q80 -55 126.5 -160.5t46.5 -228.5q0 -244 -133.5 -394.5 t-351.5 -150.5z"/>
<glyph glyph-name="taugreek" horiz-adv-x="1013" unicode="τ" d="M663 -8q-152 0 -212 68t-60 229v640h-331v149h868v-149h-363v-638q0 -76 31.5 -112t106.5 -36q28 0 71 5l10 -147q-44 -9 -121 -9z"/>
<glyph glyph-name="upsilongreek" horiz-adv-x="1077" unicode="υ" d="M534 -10q-205 0 -313 113.5t-108 323.5v651h174v-642q0 -146 59.5 -217.5t184.5 -71.5q142 0 213 105t71 299q0 181 -21 287t-82 240h178q45 -90 73.5 -226t28.5 -275q0 -282 -119 -434.5t-339 -152.5z"/>
<glyph glyph-name="phigreek" horiz-adv-x="1434" unicode="φ" d="M634 137v804q-191 -7 -295.5 -116.5t-104.5 -285.5q0 -172 107 -280.5t293 -121.5zM800 137q186 13 293 121.5t107 280.5q0 176 -104.5 285.5t-295.5 116.5v-804zM634 -360v351q-263 11 -418.5 160.5t-155.5 387.5q0 243 153.5 393.5t420.5 154.5v234h166v-234 q267 -4 420.5 -154.5t153.5 -393.5q0 -238 -155.5 -387.5t-418.5 -160.5v-351h-166z"/>
<glyph glyph-name="chigreek" horiz-adv-x="1139" unicode="χ" d="M93 -360l403 719l-227 458q-34 67 -66 89.5t-90 22.5q-32 0 -58 -8v149q53 10 96 10q97 0 151.5 -40.5t113.5 -159.5l183 -371h2l297 569h183l-405 -729l220 -440q37 -73 66.5 -96.5t82.5 -23.5q30 0 54 8l10 -149q-38 -10 -85 -10q-104 0 -155.5 35.5t-107.5 148.5 l-189 377h-2l-294 -559h-183z"/>
<glyph glyph-name="psigreek" horiz-adv-x="1404" unicode="ψ" d="M614 -360v350q-236 2 -368.5 117t-132.5 320v651h174v-630q0 -146 83.5 -223.5t243.5 -77.5v1174h167v-1174q173 2 267 103.5t94 299.5q0 182 -21 288t-82 240h178q45 -90 73.5 -223.5t28.5 -272.5q0 -279 -142.5 -435.5t-395.5 -156.5v-350h-167z"/>
<glyph glyph-name="enspace" horiz-adv-x="1166" unicode=" "/>
<glyph glyph-name="emspace" horiz-adv-x="2008" unicode=" "/>
<glyph glyph-name="thinspace" horiz-adv-x="410" unicode=" "/>
<glyph glyph-name="endash" horiz-adv-x="1024" unicode="–" d="M1024 504h-1024v162h1024v-162z"/>
<glyph glyph-name="emdash" horiz-adv-x="2048" unicode="—" d="M2048 504h-2048v162h2048v-162z"/>
<glyph glyph-name="quoteleft" horiz-adv-x="538" unicode="‘" d="M265 1443h155l-127 -509h-175z"/>
<glyph glyph-name="quotesinglbase" horiz-adv-x="538" unicode="‚" d="M240 -387h-155l127 509h175z"/>
<glyph glyph-name="quotedblleft" horiz-adv-x="926" unicode="“" d="M653 1443h155l-127 -509h-175zM265 1443h155l-127 -509h-175z"/>
<glyph glyph-name="quotedblright" horiz-adv-x="926" unicode="”" d="M310 934h-155l127 509h175zM698 934h-155l127 509h175z"/>
<glyph glyph-name="dagger" horiz-adv-x="988" unicode="†" d="M571 1126v-558h-154v558h-255v143h255v270h154v-270h255v-143h-255z"/>
<glyph glyph-name="daggerdbl" horiz-adv-x="988" unicode="‡" d="M826 788h-255v-220h-154v220h-255v143h257v235h-257v143h255v230h154v-230h255v-143h-257v-235h257v-143z"/>
<glyph glyph-name="ellipsis" horiz-adv-x="1514" unicode="…" d="M1254 -10q-48 0 -81 33t-33 81q0 49 33 81.5t81 32.5q49 0 81.5 -32.5t32.5 -81.5q0 -48 -32.5 -81t-81.5 -33zM759 -10q-48 0 -81 33t-33 81q0 49 33 81.5t81 32.5q49 0 81.5 -32.5t32.5 -81.5q0 -48 -32.5 -81t-81.5 -33zM260 -10q-48 0 -81 33t-33 81q0 49 33 81.5 t81 32.5q49 0 81.5 -32.5t32.5 -81.5q0 -48 -32.5 -81t-81.5 -33z"/>
<glyph glyph-name="perthousand" horiz-adv-x="2182" unicode="‰" d="M1830 106q66 0 104 64t38 174q0 111 -37.5 173.5t-104.5 62.5q-66 0 -104.5 -63.5t-38.5 -172.5q0 -110 38.5 -174t104.5 -64zM2132 344q0 -164 -82.5 -262t-219.5 -98t-220 98.5t-83 261.5t83 261t220 98t219.5 -98t82.5 -261zM353 864q66 0 104 64t38 174 q0 111 -37.5 173.5t-104.5 62.5q-66 0 -104.5 -63.5t-38.5 -172.5q0 -110 38.5 -174t104.5 -64zM655 1102q0 -164 -82.5 -262t-219.5 -98t-220 98.5t-83 261.5t83 261t220 98t219.5 -98t82.5 -261zM1156 106q66 0 104 64t38 174q0 111 -37.5 173.5t-104.5 62.5 q-66 0 -104.5 -63.5t-38.5 -172.5q0 -110 38.5 -174t104.5 -64zM1458 344q0 -164 -82.5 -262t-219.5 -98t-220 98.5t-83 261.5t83 261t220 98t219.5 -98t82.5 -261zM311 0h-174l1056 1443h172z"/>
<glyph glyph-name="u2032" horiz-adv-x="538" unicode="′" d="M310 934h-155l127 509h175z"/>
<glyph glyph-name="u2033" horiz-adv-x="926" unicode="″" d="M698 934h-155l127 509h175zM310 934h-155l127 509h175z"/>
<glyph glyph-name="guilsinglleft" horiz-adv-x="824" unicode="‹" d="M338 572v-14l351 -413h-204l-350 416v8l350 416h204z"/>
<glyph glyph-name="guilsinglright" horiz-adv-x="824" unicode="›" d="M486 572l-351 413h204l350 -416v-8l-350 -416h-204l351 413v14z"/>
<glyph glyph-name="fraction" horiz-adv-x="138" unicode="⁄" d="M-371 0h-174l1056 1443h172z"/>
<glyph glyph-name="Euro" d="M1158 1445v-163q-74 18 -201 18q-179 0 -310.5 -89t-186.5 -256h540v-136h-570q-5 -52 -5 -99q0 -42 5 -90h570v-136h-543q55 -172 187 -262.5t313 -90.5q139 0 201 18v-162q-63 -21 -201 -21q-124 0 -234.5 32.5t-202 96t-158 163t-97.5 226.5h-211v136h189q-4 39 -4 91 q0 34 4 98h-189v136h212q63 248 251 380t440 132q135 0 201 -22z" unicode="€"/>
<glyph glyph-name="trademark" horiz-adv-x="1494" unicode="™" d="M802 1213v-494h-125v724h155l216 -514h4l216 514h155v-724h-124v494h-4l-207 -487h-75l-207 487h-4zM377 719h-131v609h-222v115h575v-115h-222v-609z"/>
<glyph glyph-name="partialdiff" horiz-adv-x="1123" unicode="∂" d="M569 783q-134 0 -220.5 -97t-86.5 -248q0 -142 70 -226.5t187 -84.5q157 0 255.5 146.5t98.5 379.5q-56 62 -135.5 96t-168.5 34zM1043 722q0 -352 -144 -554t-394 -202q-188 0 -306.5 131.5t-118.5 340.5q0 225 129.5 365t341.5 140q89 0 177 -37t133 -94h16 q-27 232 -178 393t-384 208l45 151q310 -57 496.5 -287t186.5 -555z"/>
<glyph glyph-name="product" horiz-adv-x="1346" unicode="∏" d="M1066 -290h-180v1571h-424v-1571h-180v1571h-202v162h1186v-162h-200v-1571z"/>
<glyph glyph-name="summation" horiz-adv-x="1194" unicode="∑" d="M1054 -121v-159h-894v158l469 698v11l-469 698v158h894v-159h-697v-9l467 -688v-11l-467 -688v-9h697z"/>
<glyph glyph-name="minus" horiz-adv-x="1238" unicode="−" d="M1127 488h-1016v162h1016v-162z"/>
<glyph glyph-name="radical" horiz-adv-x="1381" unicode="√" d="M80 668h178l211 -730h16l406 1505h480v-162h-357l-422 -1513h-228z"/>
<glyph glyph-name="infinity" horiz-adv-x="1816" unicode="∞" d="M1586 603q0 104 -69.5 172.5t-175.5 68.5q-87 0 -163.5 -55.5t-171.5 -187.5q110 -137 181 -188.5t153 -51.5q107 0 176.5 68.5t69.5 173.5zM476 843q-107 0 -176.5 -68.5t-69.5 -173.5q0 -104 69.5 -172.5t175.5 -68.5q87 0 163.5 55.5t171.5 187.5q-110 137 -181 188.5 t-153 51.5zM1341 200q-118 0 -216.5 62.5t-216.5 213.5q-109 -144 -211.5 -208.5t-223.5 -64.5q-176 0 -294.5 115t-118.5 286t119 285.5t296 114.5q118 0 216.5 -62.5t216.5 -213.5q109 144 211.5 208.5t223.5 64.5q176 0 294.5 -115t118.5 -286t-119 -285.5t-296 -114.5z "/>
<glyph glyph-name="approxequal" d="M438 320q-116 0 -125 -158h-141q-1 141 71 222.5t198 81.5q108 0 218 -110q84 -88 141 -88q117 0 126 158h141q0 -142 -72 -223t-197 -81q-109 0 -219 109q-47 49 -78.5 69t-62.5 20zM438 758q-116 0 -125 -158h-141q-1 141 71 222.5t198 81.5q108 0 218 -110 q84 -88 141 -88q117 0 126 158h141q0 -142 -72 -223t-197 -81q-109 0 -219 109q-47 49 -78.5 69t-62.5 20z" unicode="≈"/>
<glyph glyph-name="notequal" d="M1108 689h-358l-95 -239h453v-149h-513l-121 -301h-143l121 301h-321v149h381l95 239h-476v149h536l99 246h143l-99 -246h298v-149z" unicode="≠"/>
<glyph glyph-name="lessequal" d="M1123 582v-164l-1007 306v148l1007 306v-164l-773 -208v-16zM116 112v148h1007v-148h-1007z" unicode="≤"/>
<glyph glyph-name="greaterequal" d="M116 582l773 208v16l-773 208v164l1007 -306v-148l-1007 -306v164zM1123 112h-1007v148h1007v-148z" unicode="≥"/>
<glyph glyph-name="lozenge" horiz-adv-x="1078" unicode="◊" d="M998 652l-370 -682h-178l-370 682l370 681h178zM531 133h16l274 519l-274 518h-16l-274 -518z"/>
</font>
</defs>
</svg>
